<svg id="Layer_1" data-name="Layer 1" xmlns="http://www.w3.org/2000/svg" xmlns:xlink="http://www.w3.org/1999/xlink" viewBox="0 0 418.83 187.17"><defs><style>.cls-1{fill:#fff;}.cls-2{mask:url(#mask);}.cls-3{fill:url(#linear-gradient);}.cls-4{filter:url(#luminosity-invert);}</style><filter id="luminosity-invert" filterUnits="userSpaceOnUse" color-interpolation-filters="sRGB"><feColorMatrix values="-1 0 0 0 1 0 -1 0 0 1 0 0 -1 0 1 0 0 0 1 0"/></filter><mask id="mask" x="268.89" y="-15.91" width="164" height="139.33" maskUnits="userSpaceOnUse"><g class="cls-4"><path d="M376.28,81.66a12.3,12.3,0,0,0,1.7-3.75c.64-2.25,1.51-4.44,2.28-6.65.44-1.26.85-2.54,1.35-3.78a1.34,1.34,0,0,1,.88-.5c.75.79,1.52.12,2.28.13a9.94,9.94,0,0,1,2.39.2,1.43,1.43,0,0,1,.77,1.05c.25,2.89.47,5.78.59,8.67.16,3.68.18,7.36.34,11,.21,4.57.54,9.13.76,13.7.14,2.95.2,5.9.25,8.85,0,2.05,0,4.11,0,6.16a5.88,5.88,0,0,1-.26,1.21c-1.11,0-2.21,0-3.31,0a3,3,0,0,0-1.39.24,1.4,1.4,0,0,1-1.66-.17,1.09,1.09,0,0,1-.37-.79c0-1.84.06-3.69.09-5.53,0-2.21.07-4.41.06-6.62,0-1.82-.05-3.65-.11-5.47s-.19-3.93-.25-5.9c-.07-2.2-.08-4.4-.13-6.6,0-.83-.09-1.65-.14-2.6-1,.34-1,1.19-1.19,1.81-.37,1-.63,2.05-.95,3.08,0,.08-.15.19-.13.23.6.94-.42,1.58-.43,2.4,0,.56-.23.75-.79.56a1.75,1.75,0,0,0-.86,0c-1,.2-2,.48-3,.64a.92.92,0,0,1-.72-.47,16.92,16.92,0,0,0-2.63-4.62,13.32,13.32,0,0,1-1.19-1.93c0,1.79,0,3.42,0,5.05,0,.86,0,1.73.08,2.59.29,4.23.61,8.47.88,12.7.16,2.5.2,5,.33,7.51,0,.67.23,1.34.29,2,0,.35.11.79-.47.91-.1,0-.13.42-.21.72-1.18-.17-2.45-.32-3.7-.54-1.07-.19-1.37-.06-2,1.26-.29-.3-.69-.52-.74-.8a15.7,15.7,0,0,1-.14-2.08c-.08-1.33-.17-2.67-.23-4-.13-2.76-.26-5.52-.35-8.29,0-1.17.07-2.35,0-3.52s-.22-2.37-.31-3.55c-.39-5.15-.57-10.3-.45-15.46.09-3.76,0-7.53,0-11.29a1.45,1.45,0,0,0-.08-.52c-.3-.74.12-1.21.73-1.2,1.51,0,3-.53,4.53,0a1.23,1.23,0,0,1,.92,1,21.65,21.65,0,0,0,1.58,3.93c1.49,2.86,3.08,5.66,4.63,8.48A4,4,0,0,0,376.28,81.66ZM370.4,116c-.08-1.77-.15-3.38-.22-5-.06-1.33-.08-2.67-.17-4-.14-2-.4-3.9-.5-5.85-.19-3.54-.31-7.08-.45-10.62-.05-1.25-.08-2.5-.14-3.75s-.16-2.47-.25-3.71c0-.35-.09-.71-.11-1.06-.07-.94-.17-1.87-.18-2.81,0-2.44.07-4.88,0-7.32,0-2.68-.32-2.93-2.76-2.88-.77,0-1,.35-1,1,.07,1.67.15,3.34.22,5,0,1,.08,1.9.07,2.85,0,3.24-.22,6.49-.11,9.72.11,3.07.58,6.12.77,9.19.21,3.41.27,6.84.43,10.25.12,2.59.29,5.18.47,7.76,0,.21.23.55.39.58C368,115.66,369.12,115.82,370.4,116Zm14.44.53c1.09.06,2.07.14,3,.14a.79.79,0,0,0,.55-.55c.08-1.91.16-3.82.13-5.73s-.2-3.63-.28-5.45c-.17-3.69-.31-7.39-.49-11.08-.09-1.83-.33-3.66-.39-5.5-.1-3.11-.1-6.23-.16-9.35a4.28,4.28,0,0,0-.34-1,32.9,32.9,0,0,1-2.31,3.56,4.11,4.11,0,0,0-.83,3.33c.12,1.27.18,2.55.22,3.83.11,3.69.21,7.37.3,11.06q.1,3.94.18,7.89c0,1.43,0,2.85.08,4.28S384.74,115,384.84,116.56ZM370.12,73.85l-.19.06c0,.26,0,.53,0,.79a29.68,29.68,0,0,1-.06,4,9.22,9.22,0,0,0,1.28,5.46,35.56,35.56,0,0,0,2,3.07c.58.93,1,1.93,1.63,2.86.48.76.81,1.83,2.1,1.38.39-.14.75-.36,1.15-.47.71-.2.7-.65.46-1.17A51.62,51.62,0,0,1,375.3,83a1.58,1.58,0,0,0-.2-.3c-.58-1-1.18-1.91-1.73-2.9C372.27,77.81,371.2,75.83,370.12,73.85ZM381.93,71l-.34-.08c-.51,1.58-1,3.15-1.54,4.73-.81,2.46-1.61,4.91-2.46,7.36a2,2,0,0,0,.11,2.15,12.18,12.18,0,0,1,1,2.06,5.39,5.39,0,0,0,.41.6c.16-.11.23-.13.25-.17.84-2,1.64-4,2.52-6a3.25,3.25,0,0,0,.4-1.67c-.14-1.89-.13-3.8-.2-5.7C382.08,73.16,382,72.07,381.93,71Zm1.8,9.52.25.07a3.91,3.91,0,0,0,.62-.68q1-1.87,2-3.77A2.44,2.44,0,0,0,387,75c0-1.61-.1-3.22-.18-4.83-.06-1.26-.34-1.57-1.6-1.64a6.21,6.21,0,0,0-1.6.16.66.66,0,0,0-.37.5c0,.91-.07,1.83,0,2.75.08,2,.2,3.93.32,5.9C383.57,78.75,383.66,79.62,383.73,80.49Z"/><path d="M401.61,110.14c2.06-.49,4.15.34,6.25-.27a8.79,8.79,0,0,1,3.2.2c.16,0,.38.31.41.5.28,1.68.56,3.36.74,5,0,.21-.57.66-.92.71-1.78.23-3.57.36-5.36.54-.5.05-1,.22-1.5.23a6.16,6.16,0,0,1-2.2-.08,10.63,10.63,0,0,0-6-.14,12.14,12.14,0,0,1-1.5.42.88.88,0,0,1-.64-.58c-.15-2.44-.2-4.88-.34-7.31-.11-1.85-.34-3.69-.47-5.53-.15-2.2-.29-4.41-.38-6.61,0-1,.09-2,.07-2.95,0-1.7-.17-3.39-.17-5.09,0-3.1.1-6.2.05-9.3,0-2.69-.26-5.37-.39-8.05a8.05,8.05,0,0,1,0-1.51,3,3,0,0,0-.31-2.41,1,1,0,0,1,.07-.88c.11-.16.53-.13.81-.12.52,0,1,.11,1.56.14,2.9.17,5.79.36,8.69.5a21.09,21.09,0,0,0,2.41-.17,30.47,30.47,0,0,1,3.68-.22c1.43.07,1.6.38,1.49,1.78s-.21,2.78-.3,4.17c-.07,1.1-.28,1.17-1.38,1.09-2.14-.16-4.28-.22-6.42-.27-1,0-2,.13-3,.11-.66,0-.88.26-.86.83,0,.93.12,1.85.14,2.78,0,3.25.07,6.49.11,9.74a5.72,5.72,0,0,0,.13.89c.21,1.21.56,1.39,1.82,1.17a10.17,10.17,0,0,1,2.83-.21c1.87.21,2,.86,1.59,2.31a4,4,0,0,0,.05,2.93c.27.55-.27.89-.84.93-1.19.09-2.38.16-3.57.23s-1.2.12-1.13,1.31c.11,2.06.14,4.12.16,6.18s0,4.06,0,6.09C400.13,110.4,401,110.06,401.61,110.14Zm-3-14.35a14,14,0,0,1-2.65-.19c-1.66-.47-1.81-.41-1.8,1.32,0,.18,0,.36.05.53.18,1.71.41,3.42.54,5.13.16,2.14.23,4.29.38,6.43,0,.33.23.86.46.93a13.1,13.1,0,0,0,2.28.36c.54.06.83-.16.8-.77-.05-1.13-.06-2.27-.07-3.4C398.61,102.72,398.61,99.31,398.61,95.8Zm-4.76-11.19c.07,1.07.16,2.57.28,4.06a.65.65,0,0,0,.42.45c.79.14,1.59.23,2.4.32.62.07.82-.2.76-.85-.13-1.39-.21-2.78-.23-4.18,0-3.2,0-6.41,0-9.61,0-1-.54-1.31-1.47-1.06a4.7,4.7,0,0,1-1.22.17c-.57,0-.83.2-.78.8.08,1.19.19,2.38.17,3.57C394.09,80.25,394,82.22,393.85,84.61Zm9.38,26.92v.11h-.54c-2.39,0-2.62.26-2,2.63a1.27,1.27,0,0,0,.56.82,5.5,5.5,0,0,0,3.22.41,17.8,17.8,0,0,1,4.19-.5c2.31,0,1.79.07,1.92-1.86a5.54,5.54,0,0,0-.1-.62c0-.81-.51-1-1.26-1C407.21,111.55,405.22,111.53,403.23,111.53Zm-4.42-40.9c.08,2,.07,1.91,2,1.84,1.69-.06,3.38,0,5.07,0,.63,0,1.25.13,1.88.15.91,0,1.25-.3,1.32-1.14s.19-1.41.19-2.12a.78.78,0,0,0-.53-.55,17.63,17.63,0,0,0-1.94.16,29.37,29.37,0,0,1-3.09.26c-1.12,0-2.24-.3-3.36-.3C398.75,68.93,398.75,69,398.81,70.63Zm.69,20.43c.08.76.2,1.45.21,2.15,0,.88.5,1.11,1.25,1a10.05,10.05,0,0,0,2-.25,1.46,1.46,0,0,0,.87-.85,8.07,8.07,0,0,0,.13-1.95c0-.5-.27-.67-.76-.6C402.05,90.76,400.9,90.89,399.5,91.06Zm-5.16-.48a19,19,0,0,0,0,2.55,1.33,1.33,0,0,0,.72.94,13.5,13.5,0,0,0,2.66.37c.18,0,.55-.36.54-.55a13.77,13.77,0,0,0-.24-2.32c-.05-.28-.32-.7-.54-.73C396.48,90.7,395.43,90.66,394.34,90.58Zm3-20c-.08-1.88-.2-2-2.08-1.91a4,4,0,0,0-1,.09c-.2.06-.48.28-.5.45a14.5,14.5,0,0,0-.12,2.13A1.1,1.1,0,0,0,395,72.51a13.29,13.29,0,0,0,2.06-.49c.14,0,.25-.38.27-.59A5.09,5.09,0,0,0,397.35,70.54Zm-1.51,44.85c3.28-.27,3.28-.27,3-2.85,0-.09,0-.21,0-.26s-.3-.38-.48-.41a9.9,9.9,0,0,0-2-.26c-.32,0-.93.35-.92.51C395.47,113.21,395.67,114.31,395.84,115.39Z"/><path d="M302.32,12.94c-1.63.67-3.34,1-4.12,2.71-.74-.32-1.25-.59-.69-1.47.15-.23,0-.83-.26-1.12-.91-1.22-1.91-2.42-3.52-2.67a16.29,16.29,0,0,0-3.7-.19c-2,.15-4.19,2.46-4.41,4.46a11.07,11.07,0,0,0-.07,3.63,4.55,4.55,0,0,0,3.32,3.26c1.19.38,2.31.95,3.47,1.41a4.27,4.27,0,0,0,1.45.42c2.45,0,4.33,1.31,6.21,2.64A9.67,9.67,0,0,1,304,31.4c.51,1.92,1.38,3.89.81,6a7.61,7.61,0,0,0,0,1.67c-.07,2.62-1.24,4.94-1.92,7.4a7.48,7.48,0,0,1-3.84,4.93,27.38,27.38,0,0,1-2.91,1.13,8.33,8.33,0,0,0-1.32.49,6.21,6.21,0,0,1-4.83.43,21,21,0,0,0-2.6-.42,8.58,8.58,0,0,1-6.1-3.16,9,9,0,0,1-2-4.12c-.19-1.2-.58-2.37-.89-3.56,0-.14-.13-.27-.16-.41-.32-1.81-.32-1.82,1.54-2l1.34-.12,1.24-.11c.36,1,.07,1.39-.88,1.34-.68,0-1.36,0-2.13,0,.61,3,1.12,6,3.13,8.37a6.69,6.69,0,0,0,3.82,2.12c1.11.25,2.29.22,3.42.39a9.6,9.6,0,0,1,1.92.52c1.52.57,2.68-.3,3.94-.9.86-.41,1.8-.66,2.66-1.08a5.75,5.75,0,0,0,1.67-1.15,10.22,10.22,0,0,0,2.48-5.32c.12-.66.57-1.27.7-1.93a18.8,18.8,0,0,0,.2-8.15,15.75,15.75,0,0,0-1-3.21,6.58,6.58,0,0,0-2.62-3,5.94,5.94,0,0,1-1.12-1,5.37,5.37,0,0,0-3.38-1.63c-2-.15-3.68-1-5.5-1.65a9.17,9.17,0,0,1-3.8-2,6.43,6.43,0,0,1-1.76-6c.19-1.23.25-2.52,1.21-3.48,1.56-1.54,3-3.3,5.52-3.12a23.6,23.6,0,0,1,4,.62,3.93,3.93,0,0,1,1.68,1.12c.87.88,1.63,1.87,2.47,2.84l2.22-1.37c-.84-1.16-1.64-2.35-2.54-3.47-.22-.28-.75-.3-1.11-.49a18.19,18.19,0,0,0-3.72-1.9,9.48,9.48,0,0,0-4.31,0,17,17,0,0,0-4.28,2,7.26,7.26,0,0,0-3.36,4.25c-.27.85-.78,1.61-1.09,2.45a8.63,8.63,0,0,0,0,6c.87,2.44,3.08,3.26,5.4,3.73,2.56.52,5.14,1,7.41,2.35a9.77,9.77,0,0,1,3.6,3.79c.65,1.23,1.5,2.36,2.13,3.6a20.55,20.55,0,0,1,.6,2.22,10.34,10.34,0,0,1,.53,6.05,9.89,9.89,0,0,1-1.56,3.87,9.64,9.64,0,0,1-4.48,3.4,5,5,0,0,1-2.6.15,16.17,16.17,0,0,1-5-2c-2.71-1.55-3.63-4-3.71-6.87,0-.69-.34-1.49.9-1.79a6.66,6.66,0,0,1,.34,1.56,6.79,6.79,0,0,0,1.51,4.57,8,8,0,0,0,1.78,1.46,9.92,9.92,0,0,0,5.22,1.8,3.15,3.15,0,0,0,2.64-1c.51-.56,1.32-.85,1.81-1.41a8.16,8.16,0,0,0,1.86-7.41,24.45,24.45,0,0,0-1.32-4.45,13.35,13.35,0,0,0-3.8-5.51,14.55,14.55,0,0,0-7.11-2.8c-2.86-.37-5.5-1.4-7-4.07a8.73,8.73,0,0,1-.89-5.63,12.7,12.7,0,0,1,1.29-3.86c.63-1.31,1-2.73,2.15-3.78A14.2,14.2,0,0,1,288,5.13a9.78,9.78,0,0,1,5.65-.38,14.07,14.07,0,0,1,3.31,1.65c1.15.7,2.47,1.05,3.49,2.07C301.72,9.79,302.7,11.11,302.32,12.94Z"/><path d="M350.1,81.47c.25-1.32.38-2.41.69-3.45.55-1.85,1.22-3.66,1.81-5.49.53-1.62,1-3.27,1.59-4.86a1.45,1.45,0,0,1,1.07-.75,37.83,37.83,0,0,1,4,.13c1.29.09,1.86.88,1.32,2a34.92,34.92,0,0,0-2.24,8c-.46,2.34-.87,4.69-1.38,7-.41,1.92-1,3.81-1.38,5.73-.21,1-.22,2-.37,3,0,.31-.14.74-.37.88-.79.49-.73,1.24-.71,2,0,2.09.18,4.18.18,6.27,0,3.09-.13,6.18-.14,9.27,0,1.27.15,2.54.24,3.8a4.49,4.49,0,0,1,.07,1.65,1.5,1.5,0,0,1-1.12.73c-1,.08-2-.06-3-.05a12.15,12.15,0,0,0-2,.21c-.59.11-1,.08-1.09-.64a23.53,23.53,0,0,1-.08-2.55c.08-1.66.29-3.32.34-5,.05-2.09,0-4.18,0-6.26s-.25-4.22-.37-6.33c-.06-1.18,0-2.36-.16-3.53a13.61,13.61,0,0,0-.72-2.55c-.76-2.23-1.49-4.47-2.33-6.67s-1.74-4-2.56-6.08-1.55-4.08-2.34-6.11c-.36-.95-.72-1.9-1.14-2.82s-.28-1.15.69-1.4a14.45,14.45,0,0,1,5.18-.61,1.52,1.52,0,0,1,1.5,1.53,8.52,8.52,0,0,0,.51,1.89c.71,2,1.43,4,2.2,6,.42,1.09,1,2.13,1.43,3.19C349.54,80.19,349.76,80.7,350.1,81.47Zm.53,6.7-.49,0c-.4,1.35-.75,2.72-1.22,4a11,11,0,0,0-.45,5.39,55.47,55.47,0,0,1,.53,8.72c0,1.51,0,3,0,4.54s-.13,2.78-.17,4.18c0,.24.16.69.29.7a29.74,29.74,0,0,0,3.2.17c.18,0,.51-.38.52-.6,0-.67,0-1.35,0-2q0-5,0-10c0-1.85.13-3.7,0-5.54a26.83,26.83,0,0,0-.62-3.81c-.13-.66-.37-1.3-.55-2C351.29,90.72,351,89.44,350.63,88.17Zm2.85,4.15.26-.12c0-.27,0-.53.05-.8.15-1.06.26-2.14.5-3.18s.74-2.33,1-3.52c.53-2.48.91-5,1.49-7.45.64-2.69,1.46-5.35,2.2-8,.12-.43,0-.73-.49-.7a19.17,19.17,0,0,0-2.41.19,1.36,1.36,0,0,0-.9.69c-.79,2.08-1.59,4.17-2.23,6.3-.7,2.31-1.25,4.66-1.82,7a4.49,4.49,0,0,0-.16,2.1c.6,2.2,1.35,4.37,2.05,6.54A7.37,7.37,0,0,0,353.49,92.32Zm-14.4-23.48c1.57,3.72,3.08,7.16,4.47,10.65s2.67,7,4,10.65a13.86,13.86,0,0,0,1.53-6.64,3.55,3.55,0,0,0-.35-.82c-.16-.35-.35-.69-.48-1.06-.93-2.53-1.84-5.07-2.77-7.6-.54-1.48-1.12-2.95-1.64-4.43a1.45,1.45,0,0,0-1.6-1.14C341.31,68.54,340.32,68.69,339.09,68.84Z"/><path d="M317.86,50.92l-.51,1.34a9.88,9.88,0,0,1-1,.43c-.23.07-.62.15-.73,0-.9-1-2-.66-3-.39a.74.74,0,0,1-1-.57,5.8,5.8,0,0,1-.28-1.57c-.06-2-.1-4-.12-6,0-2.24,0-4.48-.06-6.72s-.13-4.28-.19-6.42-.1-4.1-.12-6.14c0-2.71,0-5.43-.07-8.14,0-1.57-.28-3.14-.37-4.72s-.16-3.38-.15-5.07a1.14,1.14,0,0,1,.68-.83c1.26-.33,2.55-.56,3.83-.8A6.51,6.51,0,0,1,317,5.1a43.17,43.17,0,0,1,4.19,1.22,14,14,0,0,1,5,3.28,7.5,7.5,0,0,1,2.38,4.34,82.2,82.2,0,0,1,1.3,8.85c.18,2.83-.33,5.72-2.42,7.8a12.14,12.14,0,0,1-4.33,2.4c-1.86.7-3.86,1-5.78,1.6a1,1,0,0,0-.48.8c0,1.28.08,2.57.06,3.85-.06,3.29-.14,6.58-.28,9.86C316.57,50.1,316.55,50.93,317.86,50.92Zm-6.41-40.82c.11,1.32.27,2.62.32,3.93.12,3.1.21,6.2.29,9.3.1,3.88.18,7.76.29,11.64.1,3.55.23,7.1.34,10.65,0,1.43.06,2.87.11,4.3a.79.79,0,0,0,1,.78c.51-.07,1.29.2,1.31-.78s.08-1.72.14-2.58a74.64,74.64,0,0,0,.32-10.62c-.1-1.52,0-1.53-1.51-1.79a1.37,1.37,0,0,1-1.33-1.33l2.81-.15-.12-2.69a7.5,7.5,0,0,1-1.8,0c-.39-.1-.69-.54-1-.83a6.38,6.38,0,0,1,1-.6,1.56,1.56,0,0,1,.71,0c1.32.18,1.43.12,1.4-1.18-.06-2.92-.21-5.85-.25-8.77s0-6.11,0-9.16c0-.74-.22-1.07-1-.85C313.49,9.64,312.51,9.84,311.44,10.09Zm5.2-.25c0,1.3,0,2.31,0,3.31,0,2.31-.16,4.63-.13,6.94,0,2.77.25,5.54.34,8.31,0,1,0,1.06,1,.74.58-.19,1.13-.7,1.68-.69,2.31,0,3.08-1.61,3.93-3.27.69-1.34.39-2.77.44-4.16a11.6,11.6,0,0,0-1-5.4c-.87-1.82-1.39-3.91-3.6-4.72C318.42,10.6,317.59,10.23,316.65,9.84Zm-.08-3.37c-.31,1.25-.21,1.79.32,2a14.12,14.12,0,0,1,1.94.68,15.41,15.41,0,0,1,3.2,2,8.54,8.54,0,0,1,1.57,2.57,15.72,15.72,0,0,1,1.78,7.09c0,2.07.1,4.11-1.27,5.85a.83.83,0,0,0-.16.32,3.58,3.58,0,0,1-2.43,2.42c-1.12.48-2.33.74-3.49,1.12-.45.15-1.11.26-1.25.58a3.49,3.49,0,0,0,0,1.58c.05.6.37.72.94.56,1.55-.43,3.13-.78,4.68-1.23a7.83,7.83,0,0,0,4.09-2.44,9.22,9.22,0,0,0,2-6.51,35.57,35.57,0,0,0-1.77-9.86A15.78,15.78,0,0,0,325.57,11a1,1,0,0,0-.32-.31c-1-.66-2-1.32-3-2A17.17,17.17,0,0,0,316.57,6.47Zm-5.33,2,.32.29,3.84-1c-.15-.32-.32-.93-.44-.92a17.46,17.46,0,0,0-3.18.49C311.51,7.38,311.41,8,311.23,8.44Z"/><path d="M294.64,115.63c-1.07.17-.92,1.21-.93,2.12,0,1.24-.57,1.75-1.76,1.72a9.07,9.07,0,0,0-2,.32c-.34.07-.67.2-1.21.36-.1-.69-.23-1.28-.27-1.88-.1-1.3-.16-2.6-.21-3.9,0-1.1-.05-2.2-.08-3.29-.08-3.41-.18-6.81-.23-10.22s-.12-7-.06-10.44c.07-3.88.29-7.75.41-11.63,0-1.4,0-2.8,0-4.44-2.49-.17-5.06-.4-7.63-.51-.85,0-1.41-.42-1.08-1.21.53-1.29,0-2.51,0-3.76a2.72,2.72,0,0,1,0-.88.66.66,0,0,1,.56-.33,13.66,13.66,0,0,0,2.06.63,25.14,25.14,0,0,0,3.53,0c2.23-.13,4.43-.59,6.68-.33a12.44,12.44,0,0,0,2.23-.12,25.89,25.89,0,0,1,6.83.45,8.27,8.27,0,0,0,3.16-.26c.89-.19,1.05-.12,1.06.77,0,1.19.17,2.37.18,3.56s-.34,1.44-1.39,1.53c-2.42.2-4.85.35-7.27.52a2.32,2.32,0,0,1-.53-.07c-1.12-.19-1.61.28-1.14,1.33s0,2,0,3c0,1.82-.36,3.64-.39,5.47,0,2.46.15,4.93.13,7.39,0,4.24-.15,8.49-.25,12.73,0,1.66-.09,3.33-.16,5C294.83,111.36,294.73,113.44,294.64,115.63Zm-4.75,2.52a14.44,14.44,0,0,0,1.79-.21,1,1,0,0,0,.55-.56c.54-1.37,0-3,.89-4.28.07-.1,0-.29,0-.44.07-1.91.14-3.82.23-5.72.11-2.41.36-4.83.32-7.24a66.28,66.28,0,0,1,0-7.31c.14-1.54,0-3.09.05-4.64.07-2.14.18-4.27.28-6.4s.66-4.08.12-6.15c-.13-.49-.23-.71-.78-.72-1,0-2-.14-2.93-.15a.74.74,0,0,0-.53.49c-.06.53.06,1.07,0,1.6-.17,2.58-.43,5.15-.53,7.73-.08,2,0,4,0,6,0,1.78.15,3.57.18,5.35.08,4.15.18,8.31.17,12.46,0,3.14.61,6.28.11,9.43A5.66,5.66,0,0,0,289.89,118.14Zm12.81-45.58v-.09h.54c1.12,0,1.29-.22,1.25-1.43,0-1-.32-1.17-1.35-1.17-.76,0-1.53-.13-2.29-.2-1.54-.14-3.08-.26-4.62-.41-.56-.05-.74.2-.73.73,0,.73,0,1.47-.1,2.19,0,.52.08.66.64.63C298.26,72.69,300.48,72.64,302.71,72.56Zm-21.84-2.91a10.12,10.12,0,0,1,.17,1.59c-.05.8.31,1,1.05,1,1.51.07,3,.24,4.53.38.55,0,1.09.12,1.74.19V69.58c-1.09.12-2.15.24-3.22.34a8.45,8.45,0,0,1-1.41,0C282.82,69.88,281.91,69.77,280.87,69.66Zm11.31,3.27,1.14.08c.59,0,1-.09.92-.82a10.62,10.62,0,0,1,0-1.94c.06-.61-.17-.81-.74-.82-.94,0-1.89-.1-2.83-.11-.21,0-.59.14-.6.24a13.6,13.6,0,0,0-.1,3c0,.2,1.08.27,1.67.39A3.37,3.37,0,0,0,292.18,72.92Z"/><path d="M357.3,49.9a2.19,2.19,0,0,0-3-1c-.4.12-.87,0-1.28.1-1.29.33-1.43-.66-1.65-1.45-.51-1.86-.92-3.75-1.44-5.61-.77-2.75-1.64-5.48-2.39-8.24-.39-1.43-.59-2.91-.92-4.36a6.27,6.27,0,0,0-.66-2.2c-.94-1.34-1-2.86-1.2-4.35a2.07,2.07,0,0,0-.1-.43c0-.07-.12-.11-.28-.23-.46,1.46-.87,2.88-1.34,4.27-.56,1.69-1.17,3.36-1.75,5-.4,1.15-.72,2.33-1.17,3.46-.85,2.16-1.77,4.3-2.67,6.44-1,2.33-2,4.62-2.91,7a14.21,14.21,0,0,0-.36,3.26.73.73,0,0,1-.47.14c-1.63-.29-3.28-.53-4.87-1-.93-.26-.67-1.2-.49-1.84.41-1.48,1-2.91,1.43-4.38.91-2.91,1.74-5.85,2.73-8.73.51-1.47,1.3-2.85,2-4.28.39-.84.77-1.67,1.13-2.52.68-1.57,1.41-3.13,2-4.73q1.21-3.27,2.24-6.6c.67-2.15,1.19-4.36,1.88-6.5C342.35,9.4,343,7.71,343.73,6c.05-.13.53-.24.7-.15,1.31.7,1.8,2,2.3,3.28a39.33,39.33,0,0,1,1.69,6.27c.41,1.88,1.16,3.68,1.7,5.53.32,1.09.51,2.21.81,3.31.55,2,1.14,4,1.71,5.92.48,1.63.92,3.27,1.44,4.89.84,2.57,1.76,5.11,2.59,7.68.43,1.32.74,2.68,1.11,4a1.59,1.59,0,0,0,.19.5C358.81,48.48,358.64,49.21,357.3,49.9ZM342,14.27a9,9,0,0,1-.19.93c-.81,2.62-1.56,5.27-2.47,7.85a74,74,0,0,1-3.08,7.71,77.28,77.28,0,0,0-4,10.5c-.72,2.27-1.48,4.54-2.23,6.8-.32,1-.05,1.45.94,1.62.29.05.59.12.88.19.58.14.93,0,1-.67a3.64,3.64,0,0,1,.2-1.05q1.7-4,3.45-7.93c.82-1.85,1.81-3.63,2.5-5.53,1.09-3,2-6,3-9.07.51-1.52,1.11-3,1.63-4.52a3.4,3.4,0,0,0,.34-1.65A12.79,12.79,0,0,0,342,14.27Zm4.74.17c-.13.18-.28.29-.29.42-.17,1.9-1.75,3.64-.63,5.69,0,.07,0,.18,0,.27.23,1.29.37,2.61.7,3.88.43,1.6,1,3.16,1.54,4.75.21.68.26,1.41.45,2.1.73,2.74,1.49,5.48,2.24,8.21q1,3.48,1.93,7c.13.45.35.73.9.64s1.22-.1,1.83-.16c.39,0,.82-.07.69-.67s-.18-1-.32-1.47c-.8-2.63-1.62-5.26-2.44-7.89-1.15-3.69-2.33-7.38-3.44-11.09-.39-1.31-.58-2.67-.94-4s-.83-2.36-1.19-3.55S347.13,15.89,346.75,14.44Zm-2.37-6.92c-.5,1.09-1,2-1.37,3a3.22,3.22,0,0,0-.14,1.79,14.58,14.58,0,0,0,1.07,2.45c.25.53.55,1,.87,1.62C346.36,13.29,346.54,10.4,344.38,7.52Z"/><path d="M375.89,2.51c.84.19,2.25.52,3.66.81.33.07.69,0,1,0a2.65,2.65,0,0,1,.94.2,8.42,8.42,0,0,1,1.8,1.14,4.93,4.93,0,0,1,.83,1.41,7.52,7.52,0,0,1,.58,1.3c.15.53.16,1-.64,1.05a1.53,1.53,0,0,0-.87.36c-.83.72-1.61,1.49-2.42,2.24-.49.45-1,.36-1.14-.22a3.38,3.38,0,0,0-3.3-2.24,17.18,17.18,0,0,0-2.3,0,4.82,4.82,0,0,0-3.34,2.62,33.36,33.36,0,0,0-2.29,5,12.58,12.58,0,0,0-.89,5.21,25.27,25.27,0,0,1-.57,4.49c-.09.88,0,1.78-.07,2.65-.31,2.42.6,4.72.65,7.1a7.12,7.12,0,0,0,1.89,4.54,30.3,30.3,0,0,1,2.37,3,4,4,0,0,0,3.56,1.68,15.09,15.09,0,0,0,3-.18,4.22,4.22,0,0,0,3.13-2.47c.12-.23.38-.57.54-.55a1.64,1.64,0,0,1,1,.45c.72.77,1.34,1.64,2.06,2.41.2.22.69.16.93.37.8.7.21,1.49-.09,2.12a7.46,7.46,0,0,1-5.08,3.83,21.38,21.38,0,0,1-4.11.81,10.34,10.34,0,0,1-4.9-.6c-.63-.26-1.29-.44-1.93-.65a7.91,7.91,0,0,1-4.9-3.7c-.59-1.11-1.4-2.13-1.89-3.28A19.7,19.7,0,0,1,361,36c0-2.37-.51-4.74-.47-7.11a57.42,57.42,0,0,1,.73-6.94,31.32,31.32,0,0,1,.9-4.54c.69-2.34,1.44-4.67,2.35-6.93A12.36,12.36,0,0,1,366.61,7,11.84,11.84,0,0,1,375.89,2.51ZM362,28.86c.16,2.48.28,4.51.42,6.54a13.16,13.16,0,0,0,1.53,6,23,23,0,0,1,1.14,2.41,8.74,8.74,0,0,0,4.65,4.79A15.66,15.66,0,0,0,376,50a13.37,13.37,0,0,0,7.42-2.25,1.41,1.41,0,0,0,.11-2.53,2.09,2.09,0,0,1-.49-.49c-.61-1-1-1.06-1.62,0a3.42,3.42,0,0,1-2.64,1.65,18.07,18.07,0,0,1-4.5,0,5.92,5.92,0,0,1-3-1.36,25.07,25.07,0,0,1-2.71-3.63c-.17-.24-.39-.44-.59-.66A5.3,5.3,0,0,1,366.35,38c-.32-2.18-.81-4.35-.93-6.53-.13-2.42.06-4.86.17-7.29.05-1.18.22-2.36.37-3.53s.34-2.4.54-3.6a15.25,15.25,0,0,1,2.05-4.82,19.49,19.49,0,0,1,1.34-2.54,6.27,6.27,0,0,1,2.72-2.39A12.17,12.17,0,0,1,374.1,7a6.11,6.11,0,0,1,5.63,1.4c1,.89,1,.92,2,.09a6.65,6.65,0,0,0,1-1c.14-.17.24-.58.15-.69a6.05,6.05,0,0,0-1.68-1.66,14.61,14.61,0,0,0-2.89-.74,9.2,9.2,0,0,0-4.83-.19,11.69,11.69,0,0,0-7.45,6.25,24.33,24.33,0,0,0-1.56,4.37c-.71,2.67-1.4,5.35-1.89,8.07C362.24,25,362.18,27.17,362,28.86Z"/><path d="M312.49,67.77a4.49,4.49,0,0,0,1.18.37,18.24,18.24,0,0,0,2.14-.14c.9-.08,1.14.15,1.19,1,.09,1.45.24,2.89.33,4.34s.12,2.62.17,3.92c.07,1.67.15,3.35.19,5s0,3.57,0,5.36a6.75,6.75,0,0,0,.09.8.7.7,0,0,0,.85.7l8.85-.59a.91.91,0,0,0,1-1.09c-.16-2.83-.29-5.66-.45-8.49q-.27-5.06-.56-10.11c0-.87.33-1.22,1.21-1.26s1.88-.28,2.83-.35a4.16,4.16,0,0,1,1.67.18,1.2,1.2,0,0,1,.52.91q.4,6.7.73,13.41c.06,1.18,0,2.37,0,3.56.07,1.88.27,3.75.29,5.63,0,3.06-.1,6.12,0,9.18.06,3.31.24,6.62.38,9.93.09,2.14.23,4.28.29,6.42,0,.9-.48,1.28-1.4,1.34-1.16.08-2.31.18-3.46.32a1.28,1.28,0,0,1-1.48-1.22c0-1.46,0-2.92-.07-4.38-.12-2.35-.36-4.7-.43-7.06-.07-2.56,0-5.13,0-7.7,0-.09,0-.18,0-.27.05-2.38.05-2.33-2.27-2.21s-4.42.12-6.63.16c-.67,0-1.07.18-1,1,.14,1.48.21,3,.29,4.46.17,3.12.31,6.25.5,9.38.12,1.87.27,3.75.52,5.61.18,1.37-.1,2-1.48,2.16a34.08,34.08,0,0,1-4.12-.05,1.17,1.17,0,0,1-1.22-1.19c-.15-1.52-.35-3-.44-4.55-.15-2.53-.23-5.06-.35-7.6-.13-2.89-.24-5.77-.41-8.66-.13-2.3-.33-4.59-.51-6.89-.15-1.91-.32-3.81-.44-5.72-.15-2.3-.21-4.6-.4-6.89-.17-2.13-.43-4.25-.68-6.38a5.81,5.81,0,0,0-.35-1.1c-.25-.77,0-1.22.82-1.26S311.83,67.77,312.49,67.77Zm5.66,48.72c-.08-1.45-.17-2.79-.22-4.12q-.17-5-.3-9.93c-.06-2.14-.8-4.22-.44-6.39.11-.67-.46-.79-1-.77-.68,0-1.36.18-2,.23a.78.78,0,0,0-.8.95q.14,2.28.29,4.56c.18,2.8.34,5.6.55,8.39.17,2.22.4,4.44.66,6.65a.88.88,0,0,0,.63.58C316.38,116.64,317.23,116.54,318.15,116.48Zm-7-46.79c.14,1,.34,2,.42,3,.27,3.12.51,6.24.75,9.36.17,2.23.34,4.46.49,6.69,0,.47.15.75.67.7.76-.06,1.53-.14,2.29-.18.47,0,.72-.17.71-.69,0-1.51,0-3-.1-4.53s-.21-2.84-.31-4.26c-.22-3.09-.43-6.19-.69-9.28,0-.28-.33-.75-.53-.76C313.7,69.66,312.51,69.7,311.18,69.7Zm22,25c-.86,0-1.58-.08-2.29-.13s-.93.32-.93,1c0,2.41,0,4.82,0,7.23s.29,4.52.42,6.78c.07,1.13.08,2.25.12,3.38s.06,2.19.15,3.27c0,.47.3.73.87.53a5.62,5.62,0,0,1,1.58-.29c.66,0,.88-.28.82-1-.21-2.31-.52-4.63-.52-6.95,0-3-.44-6,0-9A22.25,22.25,0,0,0,333.19,94.72Zm.18-6.51a13.59,13.59,0,0,1-.33-1.77c-.09-1.77-.12-3.55-.18-5.32-.13-3.44-.25-6.88-.4-10.32-.09-2-.1-2-2-2-1.44,0-1.74.29-1.68,1.75s.24,3,.35,4.46c0,.65,0,1.31.08,2,.17,1.72.42,3.43.53,5.16s0,3.34.13,5c0,.36.35,1,.61,1A22.34,22.34,0,0,0,333.38,88.21Zm-9.74,5.4,0,.18c1.39-.11,2.79-.23,4.18-.32a.68.68,0,0,0,.73-.81c0-.63-.08-1.26,0-1.88s-.2-.92-.94-.8c-1.17.18-2.35.22-3.53.3-1.64.11-3.28.19-4.92.3-.59,0-1,.29-.83,1a7.29,7.29,0,0,1,.27,1.49c0,.86.43,1,1.14.91C321,93.81,322.33,93.72,323.64,93.61Zm-6.57.14c-.09-.83-.14-1.66-.29-2.47a.85.85,0,0,0-.6-.55,11.15,11.15,0,0,0-2.85.31c-.19.06-.11,1.11-.13,1.7,0,.24,0,.48,0,.72,0,.51.22.67.73.6C314.94,93.93,315.92,93.86,317.07,93.75ZM331.44,93c1.85,0,1.85,0,2-1.8,0-.27.06-.53.07-.8,0-.49-.14-.79-.73-.7a9,9,0,0,1-1.69.07c-.78,0-1.2.23-1.11,1.07,0,.24,0,.48,0,.71C330,93,330,93,331.44,93Z"/><path d="M408.1,11c-1.74-.13-3.59-.3-5.45-.41-1.51-.09-3-.13-4.53-.15-.74,0-1.48.07-2.28.11a31.51,31.51,0,0,0-.31,4.16c.17,3.33.48,6.66.78,10,.09,1.05.47,1.36,1.54,1.46,1.55.14,3.09.29,4.64.4.61,0,.83.36.65.89a6.93,6.93,0,0,0,0,3.72c.13.64-.15,1-.82,1-1.55,0-3.11.07-4.66.12-.23,0-.46,0-.74.07.1,2.81.2,5.55.29,8.29,0,.51,0,1,0,1.53a1,1,0,0,0,1.16,1.24l6.17.07h4.3A1.37,1.37,0,0,1,410.32,45a5.26,5.26,0,0,1-.06,1c-.22.91-.3,1.73.83,2.1.1,0,.13.24.12.22l-.8,1.15c-.84,0-1.86,0-2.88,0-2.2.09-4.42.1-6.61.36a38.25,38.25,0,0,1-6.84.43,1.88,1.88,0,0,0-.93.39c-.76.47-1.35.31-1.44-.56-.2-2-.28-4-.41-5.93,0-.53-.1-1.07-.14-1.6-.17-2.59-.36-5.18-.49-7.77-.07-1.33,0-2.67,0-4,0-2.36-.06-4.71-.08-7.07,0-1.39,0-2.79,0-4.18,0-1-.06-1.91,0-2.86,0-1.56.14-3.12.12-4.68s-.14-3.37-.26-5.05c-.05-.74-.23-1.47-.31-2.21s.43-1.06,1.15-1c1.6.17,3.2.31,4.8.47a1.2,1.2,0,0,0,.27,0c3.53-.47,7.08,0,10.62-.13,1.61-.05,1.94.28,2.12,1.85A7.43,7.43,0,0,1,408.1,11ZM394.64,12c-.11-1.35-.22-1.43-1.54-1.2a1.53,1.53,0,0,1-.44.07c-.68-.09-.8.32-.81.86,0,1.82-.12,3.64-.1,5.47,0,2.36.14,4.71.18,7.07,0,2.07.14,2.18,2.2,1.77l.18,0c.65,0,.8-.37.71-1a31.13,31.13,0,0,1-.51-3.62c-.1-2.68-.08-5.36-.09-8A8.79,8.79,0,0,1,394.64,12ZM392.89,42c0,2,0,1.93,1.84,1.78.86-.07,1.14-.38,1.11-1.21-.06-1.76,0-3.53-.09-5.29-.05-1.49-.16-3-.29-4.47,0-.27-.25-.7-.45-.74a18.26,18.26,0,0,0-2.58-.28c-.16,0-.49.27-.49.42A22.75,22.75,0,0,0,392,35C392.28,37.35,392.6,39.69,392.89,42ZM396.16,9.1a8.19,8.19,0,0,0,1,0,29,29,0,0,1,6.93.16,12.72,12.72,0,0,0,2.83-.15.92.92,0,0,0,.64-.59,10.38,10.38,0,0,0,0-2.22c0-.2-.38-.49-.62-.54a7.24,7.24,0,0,0-1.57-.13c-1.69,0-3.38,0-5.07,0-1.25,0-2.51,0-3.75.05a.9.9,0,0,0-.59.65C396,7.24,396.08,8.1,396.16,9.1ZM409,46.51c.06-1.17-.37-1.56-1.57-1.54-3.16,0-6.31,0-9.47.11-.24,0-.67.35-.67.53a15,15,0,0,0,.2,2.4.8.8,0,0,0,1.17.71,7.92,7.92,0,0,1,1.38-.35c1.77-.21,3.55-.42,5.33-.54a16,16,0,0,1,2.85.11c.49.05.67-.1.72-.53S409,46.81,409,46.51ZM394.71,5.63c-.8-.12-1.5-.28-2.21-.32s-1.07.25-1,1.07c0,.36.11.71.12,1.07.06,2,.22,2.14,2.15,2,.77-.05,1.16-.39,1.12-1.17S394.78,6.56,394.71,5.63Zm2,22.14a22.06,22.06,0,0,0,0,2.25.86.86,0,0,0,.6.57c1.21.09,2.44.1,3.65.1a.55.55,0,0,0,.4-.36,9.61,9.61,0,0,0-.07-1.67.64.64,0,0,0-.42-.44C399.55,28,398.16,27.92,396.73,27.77Zm-3.14,2.71c1.59.07,1.59.07,1.68-1.48,0,0,0-.06,0-.09,0-1.34-.25-1.59-1.54-1.32a2.36,2.36,0,0,1-.79.15c-.92-.15-1,.41-1,1.06C392,30.41,392,30.41,393.59,30.48Zm2.06,14.85a18.82,18.82,0,0,0-2.18.14.88.88,0,0,0-.47.69,12.66,12.66,0,0,0,.21,2.12.65.65,0,0,0,.47.4c.53.05,1.07,0,1.6,0s.68-.26.63-.74C395.81,47.1,395.74,46.24,395.65,45.33Z"/></g></mask><linearGradient id="linear-gradient" x1="275.06" y1="-22.07" x2="426.73" y2="129.59" gradientUnits="userSpaceOnUse"><stop offset="0" stop-color="#ef32d9"/><stop offset="1" stop-color="#89fffd"/></linearGradient></defs><title>landingArtboard 1@1x</title><path d="M106.28,81.66a12.3,12.3,0,0,0,1.7-3.75c.64-2.25,1.51-4.44,2.28-6.65.44-1.26.85-2.54,1.35-3.78a1.34,1.34,0,0,1,.88-.5c.75.79,1.52.12,2.28.13a9.94,9.94,0,0,1,2.39.2,1.43,1.43,0,0,1,.77,1.05c.25,2.89.47,5.78.59,8.67.16,3.68.18,7.36.34,11,.21,4.57.54,9.13.76,13.7.14,2.95.2,5.9.25,8.85,0,2.05,0,4.11,0,6.16a5.88,5.88,0,0,1-.26,1.21c-1.11,0-2.21,0-3.31,0a3,3,0,0,0-1.39.24,1.4,1.4,0,0,1-1.66-.17,1.09,1.09,0,0,1-.37-.79c0-1.84.06-3.69.09-5.53,0-2.21.07-4.41.06-6.62,0-1.82-.05-3.65-.11-5.47s-.19-3.93-.25-5.9c-.07-2.2-.08-4.4-.13-6.6,0-.83-.09-1.65-.14-2.6-1,.34-1,1.19-1.19,1.81-.37,1-.63,2.05-.95,3.08,0,.08-.15.19-.13.23.6.94-.42,1.58-.43,2.4,0,.56-.23.75-.79.56a1.75,1.75,0,0,0-.86,0c-1,.2-2,.48-3,.64a.92.92,0,0,1-.72-.47,16.92,16.92,0,0,0-2.63-4.62,13.32,13.32,0,0,1-1.19-1.93c0,1.79,0,3.42,0,5.05,0,.86,0,1.73.08,2.59.29,4.23.61,8.47.88,12.7.16,2.5.2,5,.33,7.51,0,.67.23,1.34.29,2,0,.35.11.79-.47.91-.1,0-.13.42-.21.72-1.18-.17-2.45-.32-3.7-.54-1.07-.19-1.37-.06-2,1.26-.29-.3-.69-.52-.74-.8a15.7,15.7,0,0,1-.14-2.08c-.08-1.33-.17-2.67-.23-4-.13-2.76-.26-5.52-.35-8.29,0-1.17.07-2.35,0-3.52s-.22-2.37-.31-3.55c-.39-5.15-.57-10.3-.45-15.46.09-3.76,0-7.53,0-11.29a1.45,1.45,0,0,0-.08-.52c-.3-.74.12-1.21.73-1.2,1.51,0,3-.53,4.53,0a1.23,1.23,0,0,1,.92,1,21.65,21.65,0,0,0,1.58,3.93c1.49,2.86,3.08,5.66,4.63,8.48A4,4,0,0,0,106.28,81.66ZM100.4,116c-.08-1.77-.15-3.38-.22-5-.06-1.33-.08-2.67-.17-4-.14-2-.4-3.9-.5-5.85-.19-3.54-.31-7.08-.45-10.62-.05-1.25-.08-2.5-.14-3.75s-.16-2.47-.25-3.71c0-.35-.09-.71-.11-1.06-.07-.94-.17-1.87-.18-2.81,0-2.44.07-4.88,0-7.32,0-2.68-.32-2.93-2.76-2.88-.77,0-1,.35-1,1,.07,1.67.15,3.34.22,5,0,1,.08,1.9.07,2.85,0,3.24-.22,6.49-.11,9.72.11,3.07.58,6.12.77,9.19.21,3.41.27,6.84.43,10.25.12,2.59.29,5.18.47,7.76,0,.21.23.55.39.58C98,115.66,99.12,115.82,100.4,116Zm14.44.53c1.09.06,2.07.14,3,.14a.79.79,0,0,0,.55-.55c.08-1.91.16-3.82.13-5.73s-.2-3.63-.28-5.45c-.17-3.69-.31-7.39-.49-11.08-.09-1.83-.33-3.66-.39-5.5-.1-3.11-.1-6.23-.16-9.35a4.28,4.28,0,0,0-.34-1,32.9,32.9,0,0,1-2.31,3.56,4.11,4.11,0,0,0-.83,3.33c.12,1.27.18,2.55.22,3.83.11,3.69.21,7.37.3,11.06q.1,3.94.18,7.89c0,1.43,0,2.85.08,4.28S114.74,115,114.84,116.56ZM100.12,73.85l-.19.06c0,.26,0,.53,0,.79a29.68,29.68,0,0,1-.06,4,9.22,9.22,0,0,0,1.28,5.46,35.56,35.56,0,0,0,2,3.07c.58.93,1,1.93,1.63,2.86.48.76.81,1.83,2.1,1.38.39-.14.75-.36,1.15-.47.71-.2.7-.65.46-1.17A51.62,51.62,0,0,1,105.3,83a1.58,1.58,0,0,0-.2-.3c-.58-1-1.18-1.91-1.73-2.9C102.27,77.81,101.2,75.83,100.12,73.85ZM111.93,71l-.34-.08c-.51,1.58-1,3.15-1.54,4.73-.81,2.46-1.61,4.91-2.46,7.36a2,2,0,0,0,.11,2.15,12.18,12.18,0,0,1,1,2.06,5.39,5.39,0,0,0,.41.6c.16-.11.23-.13.25-.17.84-2,1.64-4,2.52-6a3.25,3.25,0,0,0,.4-1.67c-.14-1.89-.13-3.8-.2-5.7C112.08,73.16,112,72.07,111.93,71Zm1.8,9.52.25.07a3.91,3.91,0,0,0,.62-.68q1-1.87,2-3.77A2.44,2.44,0,0,0,117,75c0-1.61-.1-3.22-.18-4.83-.06-1.26-.34-1.57-1.6-1.64a6.21,6.21,0,0,0-1.6.16.66.66,0,0,0-.37.5c0,.91-.07,1.83,0,2.75.08,2,.2,3.93.32,5.9C113.57,78.75,113.66,79.62,113.73,80.49Z"/><path d="M131.61,110.14c2.06-.49,4.15.34,6.25-.27a8.79,8.79,0,0,1,3.2.2c.16,0,.38.31.41.5.28,1.68.56,3.36.74,5,0,.21-.57.66-.92.71-1.78.23-3.57.36-5.36.54-.5.05-1,.22-1.5.23a6.16,6.16,0,0,1-2.2-.08,10.63,10.63,0,0,0-6-.14,12.14,12.14,0,0,1-1.5.42.88.88,0,0,1-.64-.58c-.15-2.44-.2-4.88-.34-7.31-.11-1.85-.34-3.69-.47-5.53-.15-2.2-.29-4.41-.38-6.61,0-1,.09-2,.07-2.95,0-1.7-.17-3.39-.17-5.09,0-3.1.1-6.2.05-9.3,0-2.69-.26-5.37-.39-8.05a8.05,8.05,0,0,1,0-1.51,3,3,0,0,0-.31-2.41,1,1,0,0,1,.07-.88c.11-.16.53-.13.81-.12.52,0,1,.11,1.56.14,2.9.17,5.79.36,8.69.5a21.09,21.09,0,0,0,2.41-.17,30.47,30.47,0,0,1,3.68-.22c1.43.07,1.6.38,1.49,1.78s-.21,2.78-.3,4.17c-.07,1.1-.28,1.17-1.38,1.09-2.14-.16-4.28-.22-6.42-.27-1,0-2,.13-3,.11-.66,0-.88.26-.86.83,0,.93.12,1.85.14,2.78,0,3.25.07,6.49.11,9.74a5.72,5.72,0,0,0,.13.89c.21,1.21.56,1.39,1.82,1.17a10.17,10.17,0,0,1,2.83-.21c1.87.21,2,.86,1.59,2.31a4,4,0,0,0,.05,2.93c.27.55-.27.89-.84.93-1.19.09-2.38.16-3.57.23s-1.2.12-1.13,1.31c.11,2.06.14,4.12.16,6.18s0,4.06,0,6.09C130.13,110.4,131,110.06,131.61,110.14Zm-3-14.35a14,14,0,0,1-2.65-.19c-1.66-.47-1.81-.41-1.8,1.32,0,.18,0,.36.05.53.18,1.71.41,3.42.54,5.13.16,2.14.23,4.29.38,6.43,0,.33.23.86.46.93a13.1,13.1,0,0,0,2.28.36c.54.06.83-.16.8-.77-.05-1.13-.06-2.27-.07-3.4C128.61,102.72,128.61,99.31,128.61,95.8Zm-4.76-11.19c.07,1.07.16,2.57.28,4.06a.65.65,0,0,0,.42.45c.79.14,1.59.23,2.4.32.62.07.82-.2.76-.85-.13-1.39-.21-2.78-.23-4.18,0-3.2,0-6.41,0-9.61,0-1-.54-1.31-1.47-1.06a4.7,4.7,0,0,1-1.22.17c-.57,0-.83.2-.78.8.08,1.19.19,2.38.17,3.57C124.09,80.25,124,82.22,123.85,84.61Zm9.38,26.92v.11h-.54c-2.39,0-2.62.26-2,2.63a1.27,1.27,0,0,0,.56.82,5.5,5.5,0,0,0,3.22.41,17.8,17.8,0,0,1,4.19-.5c2.31,0,1.79.07,1.92-1.86a5.54,5.54,0,0,0-.1-.62c0-.81-.51-1-1.26-1C137.21,111.55,135.22,111.53,133.23,111.53Zm-4.42-40.9c.08,2,.07,1.91,2,1.84,1.69-.06,3.38,0,5.07,0,.63,0,1.25.13,1.88.15.91,0,1.25-.3,1.32-1.14s.19-1.41.19-2.12a.78.78,0,0,0-.53-.55,17.63,17.63,0,0,0-1.94.16,29.37,29.37,0,0,1-3.09.26c-1.12,0-2.24-.3-3.36-.3C128.75,68.93,128.75,69,128.81,70.63Zm.69,20.43c.08.76.2,1.45.21,2.15,0,.88.5,1.11,1.25,1a10.05,10.05,0,0,0,2-.25,1.46,1.46,0,0,0,.87-.85,8.07,8.07,0,0,0,.13-1.95c0-.5-.27-.67-.76-.6C132.05,90.76,130.9,90.89,129.5,91.06Zm-5.16-.48a19,19,0,0,0,0,2.55,1.33,1.33,0,0,0,.72.94,13.5,13.5,0,0,0,2.66.37c.18,0,.55-.36.54-.55a13.77,13.77,0,0,0-.24-2.32c-.05-.28-.32-.7-.54-.73C126.48,90.7,125.43,90.66,124.34,90.58Zm3-20c-.08-1.88-.2-2-2.08-1.91a4,4,0,0,0-1,.09c-.2.06-.48.28-.5.45a14.5,14.5,0,0,0-.12,2.13A1.1,1.1,0,0,0,125,72.51a13.29,13.29,0,0,0,2.06-.49c.14,0,.25-.38.27-.59A5.09,5.09,0,0,0,127.35,70.54Zm-1.51,44.85c3.28-.27,3.28-.27,3-2.85,0-.09,0-.21,0-.26s-.3-.38-.48-.41a9.9,9.9,0,0,0-2-.26c-.32,0-.93.35-.92.51C125.47,113.21,125.67,114.31,125.84,115.39Z"/><path d="M32.32,12.94c-1.63.67-3.34,1-4.12,2.71-.74-.32-1.25-.59-.69-1.47.15-.23,0-.83-.26-1.12-.91-1.22-1.91-2.42-3.52-2.67a16.29,16.29,0,0,0-3.7-.19c-2,.15-4.19,2.46-4.41,4.46a11.07,11.07,0,0,0-.07,3.63,4.55,4.55,0,0,0,3.32,3.26c1.19.38,2.31.95,3.47,1.41a4.27,4.27,0,0,0,1.45.42c2.45,0,4.33,1.31,6.21,2.64A9.67,9.67,0,0,1,34,31.4c.51,1.92,1.38,3.89.81,6a7.61,7.61,0,0,0,0,1.67c-.07,2.62-1.24,4.94-1.92,7.4a7.48,7.48,0,0,1-3.84,4.93,27.38,27.38,0,0,1-2.91,1.13,8.33,8.33,0,0,0-1.32.49,6.21,6.21,0,0,1-4.83.43,21,21,0,0,0-2.6-.42,8.58,8.58,0,0,1-6.1-3.16,9,9,0,0,1-2-4.12c-.19-1.2-.58-2.37-.89-3.56,0-.14-.13-.27-.16-.41-.32-1.81-.32-1.82,1.54-2l1.34-.12,1.24-.11c.36,1,.07,1.39-.88,1.34-.68,0-1.36,0-2.13,0,.61,3,1.12,6,3.13,8.37a6.69,6.69,0,0,0,3.82,2.12c1.11.25,2.29.22,3.42.39a9.6,9.6,0,0,1,1.92.52c1.52.57,2.68-.3,3.94-.9.86-.41,1.8-.66,2.66-1.08a5.75,5.75,0,0,0,1.67-1.15,10.22,10.22,0,0,0,2.48-5.32c.12-.66.57-1.27.7-1.93a18.8,18.8,0,0,0,.2-8.15,15.75,15.75,0,0,0-1-3.21,6.58,6.58,0,0,0-2.62-3,5.94,5.94,0,0,1-1.12-1,5.37,5.37,0,0,0-3.38-1.63c-2-.15-3.68-1-5.5-1.65a9.17,9.17,0,0,1-3.8-2,6.43,6.43,0,0,1-1.76-6c.19-1.23.25-2.52,1.21-3.48,1.56-1.54,3-3.3,5.52-3.12a23.6,23.6,0,0,1,4,.62,3.93,3.93,0,0,1,1.68,1.12c.87.88,1.63,1.87,2.47,2.84l2.22-1.37c-.84-1.16-1.64-2.35-2.54-3.47-.22-.28-.75-.3-1.11-.49a18.19,18.19,0,0,0-3.72-1.9,9.48,9.48,0,0,0-4.31,0,17,17,0,0,0-4.28,2,7.26,7.26,0,0,0-3.36,4.25c-.27.85-.78,1.61-1.09,2.45a8.63,8.63,0,0,0,0,6c.87,2.44,3.08,3.26,5.4,3.73,2.56.52,5.14,1,7.41,2.35a9.77,9.77,0,0,1,3.6,3.79c.65,1.23,1.5,2.36,2.13,3.6a20.55,20.55,0,0,1,.6,2.22,10.34,10.34,0,0,1,.53,6.05,9.89,9.89,0,0,1-1.56,3.87,9.64,9.64,0,0,1-4.48,3.4,5,5,0,0,1-2.6.15,16.17,16.17,0,0,1-5-2c-2.71-1.55-3.63-4-3.71-6.87,0-.69-.34-1.49.9-1.79a6.66,6.66,0,0,1,.34,1.56,6.79,6.79,0,0,0,1.51,4.57,8,8,0,0,0,1.78,1.46,9.92,9.92,0,0,0,5.22,1.8,3.15,3.15,0,0,0,2.64-1c.51-.56,1.32-.85,1.81-1.41a8.16,8.16,0,0,0,1.86-7.41,24.45,24.45,0,0,0-1.32-4.45,13.35,13.35,0,0,0-3.8-5.51A14.55,14.55,0,0,0,17,25.92c-2.86-.37-5.5-1.4-7-4.07a8.73,8.73,0,0,1-.89-5.63,12.7,12.7,0,0,1,1.29-3.86c.63-1.31,1-2.73,2.15-3.78A14.2,14.2,0,0,1,18,5.13a9.78,9.78,0,0,1,5.65-.38,14.07,14.07,0,0,1,3.31,1.65c1.15.7,2.47,1.05,3.49,2.07C31.72,9.79,32.7,11.11,32.32,12.94Z"/><path d="M80.1,81.47c.25-1.32.38-2.41.69-3.45.55-1.85,1.22-3.66,1.81-5.49.53-1.62,1-3.27,1.59-4.86a1.45,1.45,0,0,1,1.07-.75,37.83,37.83,0,0,1,4,.13c1.29.09,1.86.88,1.32,2a34.92,34.92,0,0,0-2.24,8c-.46,2.34-.87,4.69-1.38,7-.41,1.92-1,3.81-1.38,5.73-.21,1-.22,2-.37,3,0,.31-.14.74-.37.88-.79.49-.73,1.24-.71,2,0,2.09.18,4.18.18,6.27,0,3.09-.13,6.18-.14,9.27,0,1.27.15,2.54.24,3.8a4.49,4.49,0,0,1,.07,1.65,1.5,1.5,0,0,1-1.12.73c-1,.08-2-.06-3-.05a12.15,12.15,0,0,0-2,.21c-.59.11-1,.08-1.09-.64a23.53,23.53,0,0,1-.08-2.55c.08-1.66.29-3.32.34-5,.05-2.09,0-4.18,0-6.26s-.25-4.22-.37-6.33c-.06-1.18,0-2.36-.16-3.53a13.61,13.61,0,0,0-.72-2.55c-.76-2.23-1.49-4.47-2.33-6.67S72.1,80,71.28,78s-1.55-4.08-2.34-6.11c-.36-.95-.72-1.9-1.14-2.82s-.28-1.15.69-1.4A14.45,14.45,0,0,1,73.68,67a1.52,1.52,0,0,1,1.5,1.53,8.52,8.52,0,0,0,.51,1.89c.71,2,1.43,4,2.2,6,.42,1.09,1,2.13,1.43,3.19C79.54,80.19,79.76,80.7,80.1,81.47Zm.53,6.7-.49,0c-.4,1.35-.75,2.72-1.22,4a11,11,0,0,0-.45,5.39,55.47,55.47,0,0,1,.53,8.72c0,1.51,0,3,0,4.54s-.13,2.78-.17,4.18c0,.24.16.69.29.7a29.74,29.74,0,0,0,3.2.17c.18,0,.51-.38.52-.6,0-.67,0-1.35,0-2q0-5,0-10c0-1.85.13-3.7,0-5.54a26.83,26.83,0,0,0-.62-3.81c-.13-.66-.37-1.3-.55-2C81.29,90.72,81,89.44,80.63,88.17Zm2.85,4.15.26-.12c0-.27,0-.53.05-.8.15-1.06.26-2.14.5-3.18s.74-2.33,1-3.52c.53-2.48.91-5,1.49-7.45.64-2.69,1.46-5.35,2.2-8,.12-.43,0-.73-.49-.7a19.17,19.17,0,0,0-2.41.19,1.36,1.36,0,0,0-.9.69c-.79,2.08-1.59,4.17-2.23,6.3-.7,2.31-1.25,4.66-1.82,7a4.49,4.49,0,0,0-.16,2.1c.6,2.2,1.35,4.37,2.05,6.54A7.37,7.37,0,0,0,83.49,92.32ZM69.09,68.84c1.57,3.72,3.08,7.16,4.47,10.65s2.67,7,4,10.65a13.86,13.86,0,0,0,1.53-6.64,3.55,3.55,0,0,0-.35-.82c-.16-.35-.35-.69-.48-1.06-.93-2.53-1.84-5.07-2.77-7.6-.54-1.48-1.12-2.95-1.64-4.43a1.45,1.45,0,0,0-1.6-1.14C71.31,68.54,70.32,68.69,69.09,68.84Z"/><path d="M47.86,50.92l-.51,1.34a9.88,9.88,0,0,1-1,.43c-.23.07-.62.15-.73,0-.9-1-2-.66-3-.39a.74.74,0,0,1-1-.57,5.8,5.8,0,0,1-.28-1.57c-.06-2-.1-4-.12-6,0-2.24,0-4.48-.06-6.72s-.13-4.28-.19-6.42-.1-4.1-.12-6.14c0-2.71,0-5.43-.07-8.14,0-1.57-.28-3.14-.37-4.72S40.19,8.68,40.2,7a1.14,1.14,0,0,1,.68-.83c1.26-.33,2.55-.56,3.83-.8A6.51,6.51,0,0,1,47,5.1a43.17,43.17,0,0,1,4.19,1.22,14,14,0,0,1,5,3.28,7.5,7.5,0,0,1,2.38,4.34,82.2,82.2,0,0,1,1.3,8.85c.18,2.83-.33,5.72-2.42,7.8A12.14,12.14,0,0,1,53.09,33c-1.86.7-3.86,1-5.78,1.6a1,1,0,0,0-.48.8c0,1.28.08,2.57.06,3.85-.06,3.29-.14,6.58-.28,9.86C46.57,50.1,46.55,50.93,47.86,50.92ZM41.44,10.09c.11,1.32.27,2.62.32,3.93.12,3.1.21,6.2.29,9.3.1,3.88.18,7.76.29,11.64.1,3.55.23,7.1.34,10.65,0,1.43.06,2.87.11,4.3a.79.79,0,0,0,1,.78c.51-.07,1.29.2,1.31-.78s.08-1.72.14-2.58a74.64,74.64,0,0,0,.32-10.62c-.1-1.52,0-1.53-1.51-1.79a1.37,1.37,0,0,1-1.33-1.33l2.81-.15-.12-2.69a7.5,7.5,0,0,1-1.8,0c-.39-.1-.69-.54-1-.83a6.38,6.38,0,0,1,1-.6,1.56,1.56,0,0,1,.71,0c1.32.18,1.43.12,1.4-1.18-.06-2.92-.21-5.85-.25-8.77s0-6.11,0-9.16c0-.74-.22-1.07-1-.85C43.49,9.64,42.51,9.84,41.44,10.09Zm5.2-.25c0,1.3,0,2.31,0,3.31,0,2.31-.16,4.63-.13,6.94,0,2.77.25,5.54.34,8.31,0,1,0,1.06,1,.74.58-.19,1.13-.7,1.68-.69,2.31,0,3.08-1.61,3.93-3.27.69-1.34.39-2.77.44-4.16a11.6,11.6,0,0,0-1-5.4c-.87-1.82-1.39-3.91-3.6-4.72C48.42,10.6,47.59,10.23,46.65,9.84Zm-.08-3.37c-.31,1.25-.21,1.79.32,2a14.12,14.12,0,0,1,1.94.68,15.41,15.41,0,0,1,3.2,2,8.54,8.54,0,0,1,1.57,2.57,15.72,15.72,0,0,1,1.78,7.09c0,2.07.1,4.11-1.27,5.85a.83.83,0,0,0-.16.32,3.58,3.58,0,0,1-2.43,2.42c-1.12.48-2.33.74-3.49,1.12-.45.15-1.11.26-1.25.58a3.49,3.49,0,0,0,0,1.58c.05.6.37.72.94.56,1.55-.43,3.13-.78,4.68-1.23a7.83,7.83,0,0,0,4.09-2.44,9.22,9.22,0,0,0,2-6.51,35.57,35.57,0,0,0-1.77-9.86A15.78,15.78,0,0,0,55.57,11a1,1,0,0,0-.32-.31c-1-.66-2-1.32-3-2A17.17,17.17,0,0,0,46.57,6.47Zm-5.33,2,.32.29,3.84-1c-.15-.32-.32-.93-.44-.92a17.46,17.46,0,0,0-3.18.49C41.51,7.38,41.41,8,41.23,8.44Z"/><path d="M24.64,115.63c-1.07.17-.92,1.21-.93,2.12,0,1.24-.57,1.75-1.76,1.72a9.07,9.07,0,0,0-2,.32c-.34.07-.67.2-1.21.36-.1-.69-.23-1.28-.27-1.88-.1-1.3-.16-2.6-.21-3.9,0-1.1-.05-2.2-.08-3.29-.08-3.41-.18-6.81-.23-10.22s-.12-7-.06-10.44c.07-3.88.29-7.75.41-11.63,0-1.4,0-2.8,0-4.44-2.49-.17-5.06-.4-7.63-.51-.85,0-1.41-.42-1.08-1.21.53-1.29,0-2.51,0-3.76a2.72,2.72,0,0,1,0-.88.66.66,0,0,1,.56-.33,13.66,13.66,0,0,0,2.06.63,25.14,25.14,0,0,0,3.53,0c2.23-.13,4.43-.59,6.68-.33a12.44,12.44,0,0,0,2.23-.12,25.89,25.89,0,0,1,6.83.45A8.27,8.27,0,0,0,34.64,68c.89-.19,1.05-.12,1.06.77,0,1.19.17,2.37.18,3.56s-.34,1.44-1.39,1.53c-2.42.2-4.85.35-7.27.52a2.32,2.32,0,0,1-.53-.07c-1.12-.19-1.61.28-1.14,1.33s0,2,0,3c0,1.82-.36,3.64-.39,5.47,0,2.46.15,4.93.13,7.39,0,4.24-.15,8.49-.25,12.73,0,1.66-.09,3.33-.16,5C24.83,111.36,24.73,113.44,24.64,115.63Zm-4.75,2.52a14.44,14.44,0,0,0,1.79-.21,1,1,0,0,0,.55-.56c.54-1.37,0-3,.89-4.28.07-.1,0-.29,0-.44.07-1.91.14-3.82.23-5.72.11-2.41.36-4.83.32-7.24a66.28,66.28,0,0,1,0-7.31c.14-1.54,0-3.09.05-4.64.07-2.14.18-4.27.28-6.4s.66-4.08.12-6.15c-.13-.49-.23-.71-.78-.72-1,0-2-.14-2.93-.15a.74.74,0,0,0-.53.49c-.06.53.06,1.07,0,1.6-.17,2.58-.43,5.15-.53,7.73-.08,2,0,4,0,6,0,1.78.15,3.57.18,5.35.08,4.15.18,8.31.17,12.46,0,3.14.61,6.28.11,9.43A5.66,5.66,0,0,0,19.89,118.14ZM32.71,72.56v-.09h.54c1.12,0,1.29-.22,1.25-1.43,0-1-.32-1.17-1.35-1.17-.76,0-1.53-.13-2.29-.2-1.54-.14-3.08-.26-4.62-.41-.56-.05-.74.2-.73.73,0,.73,0,1.47-.1,2.19,0,.52.08.66.64.63C28.26,72.69,30.48,72.64,32.71,72.56ZM10.87,69.66A10.12,10.12,0,0,1,11,71.25c-.05.8.31,1,1.05,1,1.51.07,3,.24,4.53.38.55,0,1.09.12,1.74.19V69.58c-1.09.12-2.15.24-3.22.34a8.45,8.45,0,0,1-1.41,0C12.82,69.88,11.91,69.77,10.87,69.66Zm11.31,3.27,1.14.08c.59,0,1-.09.92-.82a10.62,10.62,0,0,1,0-1.94c.06-.61-.17-.81-.74-.82-.94,0-1.89-.1-2.83-.11-.21,0-.59.14-.6.24a13.6,13.6,0,0,0-.1,3c0,.2,1.08.27,1.67.39A3.37,3.37,0,0,0,22.18,72.92Z"/><path d="M87.3,49.9a2.19,2.19,0,0,0-3-1c-.4.12-.87,0-1.28.1-1.29.33-1.43-.66-1.65-1.45-.51-1.86-.92-3.75-1.44-5.61-.77-2.75-1.64-5.48-2.39-8.24-.39-1.43-.59-2.91-.92-4.36a6.27,6.27,0,0,0-.66-2.2c-.94-1.34-1-2.86-1.2-4.35a2.07,2.07,0,0,0-.1-.43c0-.07-.12-.11-.28-.23-.46,1.46-.87,2.88-1.34,4.27-.56,1.69-1.17,3.36-1.75,5-.4,1.15-.72,2.33-1.17,3.46-.85,2.16-1.77,4.3-2.67,6.44-1,2.33-2,4.62-2.91,7a14.21,14.21,0,0,0-.36,3.26.73.73,0,0,1-.47.14c-1.63-.29-3.28-.53-4.87-1-.93-.26-.67-1.2-.49-1.84.41-1.48,1-2.91,1.43-4.38.91-2.91,1.74-5.85,2.73-8.73.51-1.47,1.3-2.85,2-4.28.39-.84.77-1.67,1.13-2.52.68-1.57,1.41-3.13,2-4.73q1.21-3.27,2.24-6.6c.67-2.15,1.19-4.36,1.88-6.5C72.35,9.4,73,7.71,73.73,6c.05-.13.53-.24.7-.15,1.31.7,1.8,2,2.3,3.28a39.33,39.33,0,0,1,1.69,6.27c.41,1.88,1.16,3.68,1.7,5.53.32,1.09.51,2.21.81,3.31.55,2,1.14,4,1.71,5.92.48,1.63.92,3.27,1.44,4.89.84,2.57,1.76,5.11,2.59,7.68.43,1.32.74,2.68,1.11,4a1.59,1.59,0,0,0,.19.5C88.81,48.48,88.64,49.21,87.3,49.9ZM72,14.27a9,9,0,0,1-.19.93c-.81,2.62-1.56,5.27-2.47,7.85a74,74,0,0,1-3.08,7.71,77.28,77.28,0,0,0-4,10.5c-.72,2.27-1.48,4.54-2.23,6.8-.32,1-.05,1.45.94,1.62.29.05.59.12.88.19.58.14.93,0,1-.67a3.64,3.64,0,0,1,.2-1.05q1.7-4,3.45-7.93c.82-1.85,1.81-3.63,2.5-5.53,1.09-3,2-6,3-9.07.51-1.52,1.11-3,1.63-4.52a3.4,3.4,0,0,0,.34-1.65A12.79,12.79,0,0,0,72,14.27Zm4.74.17c-.13.18-.28.29-.29.42-.17,1.9-1.75,3.64-.63,5.69,0,.07,0,.18,0,.27.23,1.29.37,2.61.7,3.88.43,1.6,1,3.16,1.54,4.75.21.68.26,1.41.45,2.1.73,2.74,1.49,5.48,2.24,8.21q1,3.48,1.93,7c.13.45.35.73.9.64s1.22-.1,1.83-.16c.39,0,.82-.07.69-.67s-.18-1-.32-1.47c-.8-2.63-1.62-5.26-2.44-7.89-1.15-3.69-2.33-7.38-3.44-11.09-.39-1.31-.58-2.67-.94-4s-.83-2.36-1.19-3.55S77.13,15.89,76.75,14.44ZM74.38,7.52c-.5,1.09-1,2-1.37,3a3.22,3.22,0,0,0-.14,1.79,14.58,14.58,0,0,0,1.07,2.45c.25.53.55,1,.87,1.62C76.36,13.29,76.54,10.4,74.38,7.52Z"/><path d="M105.89,2.51c.84.19,2.25.52,3.66.81.33.07.69,0,1,0a2.65,2.65,0,0,1,.94.2,8.42,8.42,0,0,1,1.8,1.14,4.93,4.93,0,0,1,.83,1.41,7.52,7.52,0,0,1,.58,1.3c.15.53.16,1-.64,1.05a1.53,1.53,0,0,0-.87.36c-.83.72-1.61,1.49-2.42,2.24-.49.45-1,.36-1.14-.22a3.38,3.38,0,0,0-3.3-2.24,17.18,17.18,0,0,0-2.3,0,4.82,4.82,0,0,0-3.34,2.62,33.36,33.36,0,0,0-2.29,5,12.58,12.58,0,0,0-.89,5.21A25.27,25.27,0,0,1,97,25.94c-.09.88,0,1.78-.07,2.65-.31,2.42.6,4.72.65,7.1a7.12,7.12,0,0,0,1.89,4.54,30.3,30.3,0,0,1,2.37,3,4,4,0,0,0,3.56,1.68,15.09,15.09,0,0,0,3-.18,4.22,4.22,0,0,0,3.13-2.47c.12-.23.38-.57.54-.55a1.64,1.64,0,0,1,1,.45c.72.77,1.34,1.64,2.06,2.41.2.22.69.16.93.37.8.7.21,1.49-.09,2.12a7.46,7.46,0,0,1-5.08,3.83,21.38,21.38,0,0,1-4.11.81,10.34,10.34,0,0,1-4.9-.6c-.63-.26-1.29-.44-1.93-.65a7.91,7.91,0,0,1-4.9-3.7c-.59-1.11-1.4-2.13-1.89-3.28A19.7,19.7,0,0,1,91,36c0-2.37-.51-4.74-.47-7.11A57.42,57.42,0,0,1,91.23,22a31.32,31.32,0,0,1,.9-4.54c.69-2.34,1.44-4.67,2.35-6.93A12.36,12.36,0,0,1,96.61,7,11.84,11.84,0,0,1,105.89,2.51ZM92,28.86c.16,2.48.28,4.51.42,6.54a13.16,13.16,0,0,0,1.53,6,23,23,0,0,1,1.14,2.41,8.74,8.74,0,0,0,4.65,4.79A15.66,15.66,0,0,0,106,50a13.37,13.37,0,0,0,7.42-2.25,1.41,1.41,0,0,0,.11-2.53,2.09,2.09,0,0,1-.49-.49c-.61-1-1-1.06-1.62,0a3.42,3.42,0,0,1-2.64,1.65,18.07,18.07,0,0,1-4.5,0,5.92,5.92,0,0,1-3-1.36,25.07,25.07,0,0,1-2.71-3.63c-.17-.24-.39-.44-.59-.66A5.3,5.3,0,0,1,96.35,38c-.32-2.18-.81-4.35-.93-6.53-.13-2.42.06-4.86.17-7.29.05-1.18.22-2.36.37-3.53s.34-2.4.54-3.6a15.25,15.25,0,0,1,2.05-4.82A19.49,19.49,0,0,1,99.9,9.71a6.27,6.27,0,0,1,2.72-2.39A12.17,12.17,0,0,1,104.1,7a6.11,6.11,0,0,1,5.63,1.4c1,.89,1,.92,2,.09a6.65,6.65,0,0,0,1-1c.14-.17.24-.58.15-.69a6.05,6.05,0,0,0-1.68-1.66,14.61,14.61,0,0,0-2.89-.74,9.2,9.2,0,0,0-4.83-.19,11.69,11.69,0,0,0-7.45,6.25,24.33,24.33,0,0,0-1.56,4.37c-.71,2.67-1.4,5.35-1.89,8.07C92.24,25,92.18,27.17,92,28.86Z"/><path class="cls-1" d="M100.4,116c-1.28-.21-2.39-.36-3.5-.59-.17,0-.38-.37-.39-.58-.18-2.59-.35-5.17-.47-7.76-.16-3.42-.22-6.84-.43-10.25-.19-3.07-.67-6.12-.77-9.19-.11-3.24.08-6.48.11-9.72,0-1,0-1.9-.07-2.85-.06-1.67-.15-3.34-.22-5,0-.69.23-1,1-1,2.44-.05,2.74.2,2.76,2.88,0,2.44-.05,4.88,0,7.32,0,.94.11,1.88.18,2.81,0,.35.09.71.11,1.06.09,1.24.18,2.47.25,3.71s.09,2.5.14,3.75c.14,3.54.26,7.08.45,10.62.1,2,.36,3.9.5,5.85.1,1.33.12,2.66.17,4C100.25,112.65,100.32,114.26,100.4,116Z"/><path class="cls-1" d="M114.84,116.56c-.1-1.58-.22-3.06-.28-4.54s0-2.85-.08-4.28q-.08-3.94-.18-7.89c-.09-3.69-.19-7.37-.3-11.06,0-1.28-.11-2.56-.22-3.83a4.11,4.11,0,0,1,.83-3.33,32.9,32.9,0,0,0,2.31-3.56,4.28,4.28,0,0,1,.34,1c.06,3.12.06,6.23.16,9.35.06,1.83.3,3.66.39,5.5.19,3.69.32,7.39.49,11.08.08,1.82.25,3.63.28,5.45s0,3.82-.13,5.73a.79.79,0,0,1-.55.55C116.91,116.71,115.93,116.62,114.84,116.56Z"/><path class="cls-1" d="M100.12,73.85c1.08,2,2.16,4,3.26,5.94.55,1,1.15,1.93,1.73,2.9a1.58,1.58,0,0,1,.2.3,51.62,51.62,0,0,0,3.21,6.85c.25.52.25,1-.46,1.17-.39.11-.76.33-1.15.47-1.29.46-1.62-.62-2.1-1.38-.58-.93-1-1.93-1.63-2.86a35.56,35.56,0,0,1-2-3.07,9.22,9.22,0,0,1-1.28-5.46,29.68,29.68,0,0,0,.06-4c0-.26,0-.53,0-.79Z"/><path class="cls-1" d="M111.93,71c.06,1.09.15,2.18.19,3.28.07,1.9.06,3.8.2,5.7a3.25,3.25,0,0,1-.4,1.67c-.88,2-1.68,4-2.52,6,0,0-.09.07-.25.17a5.39,5.39,0,0,1-.41-.6,12.18,12.18,0,0,0-1-2.06,2,2,0,0,1-.11-2.15c.85-2.44,1.65-4.9,2.46-7.36.52-1.57,1-3.15,1.54-4.73Z"/><path class="cls-1" d="M113.73,80.49c-.07-.87-.16-1.74-.22-2.62-.12-2-.24-3.93-.32-5.9,0-.91,0-1.83,0-2.75a.66.66,0,0,1,.37-.5,6.21,6.21,0,0,1,1.6-.16c1.27.07,1.55.38,1.6,1.64.07,1.61.15,3.22.18,4.83a2.44,2.44,0,0,1-.34,1.08q-1,1.9-2,3.77a3.91,3.91,0,0,1-.62.68Z"/><path d="M42.49,67.77a4.49,4.49,0,0,0,1.18.37A18.24,18.24,0,0,0,45.82,68c.9-.08,1.14.15,1.19,1,.09,1.45.24,2.89.33,4.34s.12,2.62.17,3.92c.07,1.67.15,3.35.19,5s0,3.57,0,5.36a6.75,6.75,0,0,0,.09.8.7.7,0,0,0,.85.7l8.85-.59a.91.91,0,0,0,1-1.09c-.16-2.83-.29-5.66-.45-8.49q-.27-5.06-.56-10.11c0-.87.33-1.22,1.21-1.26s1.88-.28,2.83-.35a4.16,4.16,0,0,1,1.67.18,1.2,1.2,0,0,1,.52.91q.4,6.7.73,13.41c.06,1.18,0,2.37,0,3.56.07,1.88.27,3.75.29,5.63,0,3.06-.1,6.12,0,9.18.06,3.31.24,6.62.38,9.93.09,2.14.23,4.28.29,6.42,0,.9-.48,1.28-1.4,1.34-1.16.08-2.31.18-3.46.32a1.28,1.28,0,0,1-1.48-1.22c0-1.46,0-2.92-.07-4.38-.12-2.35-.36-4.7-.43-7.06-.07-2.56,0-5.13,0-7.7,0-.09,0-.18,0-.27.05-2.38.05-2.33-2.27-2.21s-4.42.12-6.63.16c-.67,0-1.07.18-1,1,.14,1.48.21,3,.29,4.46.17,3.12.31,6.25.5,9.38.12,1.87.27,3.75.52,5.61.18,1.37-.1,2-1.48,2.16a34.08,34.08,0,0,1-4.12-.05,1.17,1.17,0,0,1-1.22-1.19c-.15-1.52-.35-3-.44-4.55-.15-2.53-.23-5.06-.35-7.6-.13-2.89-.24-5.77-.41-8.66-.13-2.3-.33-4.59-.51-6.89-.15-1.91-.32-3.81-.44-5.72-.15-2.3-.21-4.6-.4-6.89-.17-2.13-.43-4.25-.68-6.38a5.81,5.81,0,0,0-.35-1.1c-.25-.77,0-1.22.82-1.26S41.83,67.77,42.49,67.77Zm5.66,48.72c-.08-1.45-.17-2.79-.22-4.12q-.17-5-.3-9.93c-.06-2.14-.8-4.22-.44-6.39.11-.67-.46-.79-1-.77-.68,0-1.36.18-2,.23a.78.78,0,0,0-.8.95q.14,2.28.29,4.56c.18,2.8.34,5.6.55,8.39.17,2.22.4,4.44.66,6.65a.88.88,0,0,0,.63.58C46.38,116.64,47.23,116.54,48.15,116.48Zm-7-46.79c.14,1,.34,2,.42,3,.27,3.12.51,6.24.75,9.36.17,2.23.34,4.46.49,6.69,0,.47.15.75.67.7.76-.06,1.53-.14,2.29-.18.47,0,.72-.17.71-.69,0-1.51,0-3-.1-4.53s-.21-2.84-.31-4.26c-.22-3.09-.43-6.19-.69-9.28,0-.28-.33-.75-.53-.76C43.7,69.66,42.51,69.7,41.18,69.7Zm22,25c-.86,0-1.58-.08-2.29-.13s-.93.32-.93,1c0,2.41,0,4.82,0,7.23s.29,4.52.42,6.78c.07,1.13.08,2.25.12,3.38s.06,2.19.15,3.27c0,.47.3.73.87.53a5.62,5.62,0,0,1,1.58-.29c.66,0,.88-.28.82-1-.21-2.31-.52-4.63-.52-6.95,0-3-.44-6,0-9A22.25,22.25,0,0,0,63.19,94.72Zm.18-6.51A13.59,13.59,0,0,1,63,86.44c-.09-1.77-.12-3.55-.18-5.32-.13-3.44-.25-6.88-.4-10.32-.09-2-.1-2-2-2-1.44,0-1.74.29-1.68,1.75s.24,3,.35,4.46c0,.65,0,1.31.08,2,.17,1.72.42,3.43.53,5.16s0,3.34.13,5c0,.36.35,1,.61,1A22.34,22.34,0,0,0,63.38,88.21Zm-9.74,5.4,0,.18c1.39-.11,2.79-.23,4.18-.32a.68.68,0,0,0,.73-.81c0-.63-.08-1.26,0-1.88s-.2-.92-.94-.8c-1.17.18-2.35.22-3.53.3-1.64.11-3.28.19-4.92.3-.59,0-1,.29-.83,1A7.29,7.29,0,0,1,48.57,93c0,.86.43,1,1.14.91C51,93.81,52.33,93.72,53.64,93.61Zm-6.57.14c-.09-.83-.14-1.66-.29-2.47a.85.85,0,0,0-.6-.55,11.15,11.15,0,0,0-2.85.31c-.19.06-.11,1.11-.13,1.7,0,.24,0,.48,0,.72,0,.51.22.67.73.6C44.94,93.93,45.92,93.86,47.07,93.75ZM61.44,93c1.85,0,1.85,0,2-1.8,0-.27.06-.53.07-.8,0-.49-.14-.79-.73-.7a9,9,0,0,1-1.69.07c-.78,0-1.2.23-1.11,1.07,0,.24,0,.48,0,.71C60,93,60,93,61.44,93Z"/><path class="cls-1" d="M48.15,116.48c-.92.06-1.77.16-2.63.14a.88.88,0,0,1-.63-.58c-.26-2.21-.49-4.43-.66-6.65-.22-2.8-.37-5.6-.55-8.39q-.15-2.28-.29-4.56a.78.78,0,0,1,.8-.95c.68-.06,1.36-.21,2-.23.49,0,1.06.1,1,.77-.37,2.17.38,4.26.44,6.39q.13,5,.3,9.93C48,113.7,48.07,115,48.15,116.48Z"/><path class="cls-1" d="M41.18,69.7c1.34,0,2.52,0,3.7,0,.2,0,.51.48.53.76.26,3.09.46,6.18.69,9.28.1,1.42.25,2.84.31,4.26s.05,3,.1,4.53c0,.52-.24.67-.71.69-.77,0-1.53.11-2.29.18-.52,0-.64-.23-.67-.7-.14-2.23-.31-4.46-.49-6.69-.24-3.12-.48-6.24-.75-9.36C41.51,71.66,41.32,70.67,41.18,69.7Z"/><path class="cls-1" d="M63.19,94.72a22.25,22.25,0,0,1,.3,4.87c-.47,3,0,6,0,9,0,2.31.3,4.63.52,6.95.06.67-.15.92-.82,1a5.62,5.62,0,0,0-1.58.29c-.58.2-.83-.06-.87-.53-.09-1.09-.11-2.18-.15-3.27s-.06-2.26-.12-3.38c-.13-2.26-.35-4.52-.42-6.78s0-4.82,0-7.23c0-.65.22-1,.93-1S62.33,94.68,63.19,94.72Z"/><path class="cls-1" d="M63.38,88.21a22.34,22.34,0,0,1-2.93,0c-.25,0-.59-.65-.61-1-.09-1.67,0-3.34-.13-5s-.37-3.44-.53-5.16c-.06-.65,0-1.31-.08-2-.11-1.49-.28-3-.35-4.46s.24-1.73,1.68-1.75c1.94,0,2,0,2,2,.15,3.44.27,6.88.4,10.32.07,1.77.09,3.55.18,5.32A13.59,13.59,0,0,0,63.38,88.21Z"/><path class="cls-1" d="M53.64,93.61c-1.31.11-2.62.2-3.93.34-.71.07-1.15-.05-1.14-.91a7.29,7.29,0,0,0-.27-1.49c-.14-.68.23-.93.83-1,1.64-.1,3.28-.19,4.92-.3,1.18-.08,2.37-.12,3.53-.3.74-.11,1,.06.94.8s0,1.25,0,1.88a.68.68,0,0,1-.73.81c-1.4.1-2.79.22-4.18.32Z"/><path class="cls-1" d="M47.07,93.75c-1.15.11-2.13.18-3.09.31-.52.07-.73-.09-.73-.6,0-.24-.05-.48,0-.72,0-.59-.06-1.65.13-1.7a11.15,11.15,0,0,1,2.85-.31.85.85,0,0,1,.6.55C46.93,92.09,47,92.92,47.07,93.75Z"/><path class="cls-1" d="M61.44,93C60,93,60,93,60,91.5c0-.24,0-.48,0-.71-.08-.84.33-1.1,1.11-1.07a9,9,0,0,0,1.69-.07c.6-.08.75.21.73.7,0,.27,0,.53-.07.8C63.29,93,63.29,93,61.44,93Z"/><path class="cls-1" d="M128.61,95.8c0,3.51,0,6.92,0,10.33,0,1.13,0,2.27.07,3.4,0,.61-.26.83-.8.77a13.1,13.1,0,0,1-2.28-.36c-.23-.07-.44-.59-.46-.93-.15-2.14-.22-4.29-.38-6.43-.13-1.72-.36-3.42-.54-5.13,0-.18-.05-.36-.05-.53,0-1.72.14-1.79,1.8-1.32A14,14,0,0,0,128.61,95.8Z"/><path class="cls-1" d="M123.85,84.61c.11-2.39.24-4.36.28-6.33,0-1.19-.09-2.38-.17-3.57,0-.6.22-.8.78-.8a4.7,4.7,0,0,0,1.22-.17c.93-.25,1.46.08,1.47,1.06,0,3.2,0,6.41,0,9.61,0,1.39.1,2.79.23,4.18.06.65-.14.92-.76.85-.8-.08-1.6-.18-2.4-.32a.65.65,0,0,1-.42-.45C124,87.18,123.92,85.68,123.85,84.61Z"/><path class="cls-1" d="M133.23,111.53c2,0,4,0,6,0,.75,0,1.21.19,1.26,1a5.54,5.54,0,0,1,.1.62c-.13,1.94.39,1.91-1.92,1.86a17.8,17.8,0,0,0-4.19.5,5.5,5.5,0,0,1-3.22-.41,1.27,1.27,0,0,1-.56-.82c-.59-2.37-.37-2.65,2-2.63h.54Z"/><path class="cls-1" d="M128.81,70.63c-.06-1.64-.06-1.7,1.57-1.7,1.12,0,2.24.29,3.36.3a29.37,29.37,0,0,0,3.09-.26,17.63,17.63,0,0,1,1.94-.16.78.78,0,0,1,.53.55c0,.71-.13,1.41-.19,2.12s-.42,1.17-1.32,1.14c-.63,0-1.25-.14-1.88-.15-1.69,0-3.38-.08-5.07,0C128.88,72.54,128.89,72.59,128.81,70.63Z"/><path class="cls-1" d="M129.5,91.06c1.4-.17,2.55-.3,3.7-.46.49-.07.77.11.76.6a8.07,8.07,0,0,1-.13,1.95A1.46,1.46,0,0,1,133,94a10.05,10.05,0,0,1-2,.25c-.75.07-1.24-.17-1.25-1C129.7,92.51,129.58,91.82,129.5,91.06Z"/><path class="cls-1" d="M124.34,90.58c1.09.08,2.14.12,3.19.27.22,0,.48.45.54.73a13.77,13.77,0,0,1,.24,2.32c0,.19-.37.56-.54.55a13.5,13.5,0,0,1-2.66-.37,1.33,1.33,0,0,1-.72-.94A19,19,0,0,1,124.34,90.58Z"/><path class="cls-1" d="M127.35,70.54a5.09,5.09,0,0,1,0,.89c0,.21-.13.55-.27.59a13.29,13.29,0,0,1-2.06.49,1.1,1.1,0,0,1-1.38-1.21,14.5,14.5,0,0,1,.12-2.13c0-.17.3-.39.5-.45a4,4,0,0,1,1-.09C127.15,68.54,127.27,68.66,127.35,70.54Z"/><path class="cls-1" d="M125.84,115.39c-.17-1.08-.37-2.18-.46-3.28,0-.16.59-.5.92-.51a9.9,9.9,0,0,1,2,.26c.18,0,.34.26.48.41s0,.17,0,.26C129.12,115.12,129.12,115.12,125.84,115.39Z"/><path d="M138.1,11c-1.74-.13-3.59-.3-5.45-.41-1.51-.09-3-.13-4.53-.15-.74,0-1.48.07-2.28.11a31.51,31.51,0,0,0-.31,4.16c.17,3.33.48,6.66.78,10,.09,1.05.47,1.36,1.54,1.46,1.55.14,3.09.29,4.64.4.61,0,.83.36.65.89a6.93,6.93,0,0,0,0,3.72c.13.64-.15,1-.82,1-1.55,0-3.11.07-4.66.12-.23,0-.46,0-.74.07.1,2.81.2,5.55.29,8.29,0,.51,0,1,0,1.53a1,1,0,0,0,1.16,1.24l6.17.07h4.3A1.37,1.37,0,0,1,140.32,45a5.26,5.26,0,0,1-.06,1c-.22.91-.3,1.73.83,2.1.1,0,.13.24.12.22l-.8,1.15c-.84,0-1.86,0-2.88,0-2.2.09-4.42.1-6.61.36a38.25,38.25,0,0,1-6.84.43,1.88,1.88,0,0,0-.93.39c-.76.47-1.35.31-1.44-.56-.2-2-.28-4-.41-5.93,0-.53-.1-1.07-.14-1.6-.17-2.59-.36-5.18-.49-7.77-.07-1.33,0-2.67,0-4,0-2.36-.06-4.71-.08-7.07,0-1.39,0-2.79,0-4.18,0-1-.06-1.91,0-2.86,0-1.56.14-3.12.12-4.68s-.14-3.37-.26-5.05c-.05-.74-.23-1.47-.31-2.21s.43-1.06,1.15-1c1.6.17,3.2.31,4.8.47a1.2,1.2,0,0,0,.27,0c3.53-.47,7.08,0,10.62-.13,1.61-.05,1.94.28,2.12,1.85A7.43,7.43,0,0,1,138.1,11ZM124.64,12c-.11-1.35-.22-1.43-1.54-1.2a1.53,1.53,0,0,1-.44.07c-.68-.09-.8.32-.81.86,0,1.82-.12,3.64-.1,5.47,0,2.36.14,4.71.18,7.07,0,2.07.14,2.18,2.2,1.77l.18,0c.65,0,.8-.37.71-1a31.13,31.13,0,0,1-.51-3.62c-.1-2.68-.08-5.36-.09-8A8.79,8.79,0,0,1,124.64,12ZM122.89,42c0,2,0,1.93,1.84,1.78.86-.07,1.14-.38,1.11-1.21-.06-1.76,0-3.53-.09-5.29-.05-1.49-.16-3-.29-4.47,0-.27-.25-.7-.45-.74a18.26,18.26,0,0,0-2.58-.28c-.16,0-.49.27-.49.42A22.75,22.75,0,0,0,122,35C122.28,37.35,122.6,39.69,122.89,42ZM126.16,9.1a8.19,8.19,0,0,0,1,0,29,29,0,0,1,6.93.16,12.72,12.72,0,0,0,2.83-.15.92.92,0,0,0,.64-.59,10.38,10.38,0,0,0,0-2.22c0-.2-.38-.49-.62-.54a7.24,7.24,0,0,0-1.57-.13c-1.69,0-3.38,0-5.07,0-1.25,0-2.51,0-3.75.05a.9.9,0,0,0-.59.65C126,7.24,126.08,8.1,126.16,9.1ZM139,46.51c.06-1.17-.37-1.56-1.57-1.54-3.16,0-6.31,0-9.47.11-.24,0-.67.35-.67.53a15,15,0,0,0,.2,2.4.8.8,0,0,0,1.17.71,7.92,7.92,0,0,1,1.38-.35c1.77-.21,3.55-.42,5.33-.54a16,16,0,0,1,2.85.11c.49.05.67-.1.72-.53S139,46.81,139,46.51ZM124.71,5.63c-.8-.12-1.5-.28-2.21-.32s-1.07.25-1,1.07c0,.36.11.71.12,1.07.06,2,.22,2.14,2.15,2,.77-.05,1.16-.39,1.12-1.17S124.78,6.56,124.71,5.63Zm2,22.14a22.06,22.06,0,0,0,0,2.25.86.86,0,0,0,.6.57c1.21.09,2.44.1,3.65.1a.55.55,0,0,0,.4-.36,9.61,9.61,0,0,0-.07-1.67.64.64,0,0,0-.42-.44C129.55,28,128.16,27.92,126.73,27.77Zm-3.14,2.71c1.59.07,1.59.07,1.68-1.48,0,0,0-.06,0-.09,0-1.34-.25-1.59-1.54-1.32a2.36,2.36,0,0,1-.79.15c-.92-.15-1,.41-1,1.06C122,30.41,122,30.41,123.59,30.48Zm2.06,14.85a18.82,18.82,0,0,0-2.18.14.88.88,0,0,0-.47.69,12.66,12.66,0,0,0,.21,2.12.65.65,0,0,0,.47.4c.53.05,1.07,0,1.6,0s.68-.26.63-.74C125.81,47.1,125.74,46.24,125.65,45.33Z"/><path class="cls-1" d="M124.64,12a8.79,8.79,0,0,0-.22,1.4c0,2.68,0,5.37.09,8A31.13,31.13,0,0,0,125,25c.09.58-.07.94-.71,1l-.18,0c-2.06.4-2.17.29-2.2-1.77,0-2.36-.15-4.71-.18-7.07,0-1.82.07-3.64.1-5.47,0-.54.13-1,.81-.86a1.53,1.53,0,0,0,.44-.07C124.42,10.53,124.53,10.61,124.64,12Z"/><path class="cls-1" d="M122.89,42c-.29-2.34-.6-4.68-.86-7a22.75,22.75,0,0,1-.09-2.77c0-.15.33-.42.49-.42a18.26,18.26,0,0,1,2.58.28c.2,0,.43.47.45.74.13,1.49.24,3,.29,4.47.06,1.76,0,3.53.09,5.29,0,.83-.25,1.14-1.11,1.21C122.87,44,122.87,44,122.89,42Z"/><path class="cls-1" d="M126.16,9.1c-.08-1-.2-1.86-.19-2.72a.9.9,0,0,1,.59-.65c1.25-.07,2.5,0,3.75-.05,1.69,0,3.38,0,5.07,0a7.24,7.24,0,0,1,1.57.13c.24.05.6.34.62.54a10.38,10.38,0,0,1,0,2.22.92.92,0,0,1-.64.59,12.72,12.72,0,0,1-2.83.15,29,29,0,0,0-6.93-.16A8.19,8.19,0,0,1,126.16,9.1Z"/><path class="cls-1" d="M139,46.51c0,.3,0,.6,0,.9s-.23.58-.72.53a16,16,0,0,0-2.85-.11c-1.78.12-3.56.34-5.33.54a7.92,7.92,0,0,0-1.38.35.8.8,0,0,1-1.17-.71,15,15,0,0,1-.2-2.4c0-.19.43-.53.67-.53,3.16-.06,6.31-.06,9.47-.11C138.62,45,139,45.34,139,46.51Z"/><path class="cls-1" d="M124.71,5.63c.07.94.15,1.79.2,2.65s-.35,1.12-1.12,1.17c-1.93.13-2.09,0-2.15-2,0-.36-.08-.71-.12-1.07-.1-.82.14-1.12,1-1.07S123.9,5.5,124.71,5.63Z"/><path class="cls-1" d="M126.73,27.77c1.43.15,2.82.28,4.2.46a.64.64,0,0,1,.42.44,9.61,9.61,0,0,1,.07,1.67.55.55,0,0,1-.4.36c-1.22,0-2.44,0-3.65-.1a.86.86,0,0,1-.6-.57A22.06,22.06,0,0,1,126.73,27.77Z"/><path class="cls-1" d="M123.59,30.48c-1.59-.07-1.59-.07-1.6-1.68,0-.66,0-1.21,1-1.06a2.36,2.36,0,0,0,.79-.15c1.29-.27,1.59,0,1.54,1.32,0,0,0,.06,0,.09C125.18,30.55,125.18,30.55,123.59,30.48Z"/><path class="cls-1" d="M125.65,45.33c.08.91.16,1.77.25,2.62.05.48-.11.74-.63.74s-1.07,0-1.6,0a.65.65,0,0,1-.47-.4,12.66,12.66,0,0,1-.21-2.12.88.88,0,0,1,.47-.69A18.82,18.82,0,0,1,125.65,45.33Z"/><path class="cls-1" d="M80.63,88.17c.33,1.27.65,2.54,1,3.81.17.65.42,1.29.55,2a26.83,26.83,0,0,1,.62,3.81c.09,1.84,0,3.69,0,5.54q0,5,0,10c0,.67.09,1.35,0,2,0,.22-.34.6-.52.6a29.74,29.74,0,0,1-3.2-.17c-.12,0-.29-.46-.29-.7,0-1.39.13-2.78.17-4.18s0-3,0-4.54a55.47,55.47,0,0,0-.53-8.72,11,11,0,0,1,.45-5.39c.47-1.33.82-2.7,1.22-4Z"/><path class="cls-1" d="M83.49,92.32a7.37,7.37,0,0,1-.47-1C82.31,89.19,81.57,87,81,84.82a4.49,4.49,0,0,1,.16-2.1c.56-2.35,1.12-4.7,1.82-7,.64-2.13,1.44-4.22,2.23-6.3a1.36,1.36,0,0,1,.9-.69,19.17,19.17,0,0,1,2.41-.19c.52,0,.61.26.49.7-.74,2.67-1.55,5.32-2.2,8-.59,2.46-1,5-1.49,7.45-.26,1.19-.72,2.33-1,3.52s-.35,2.12-.5,3.18c0,.26,0,.53-.05.8Z"/><path class="cls-1" d="M69.09,68.84c1.23-.15,2.23-.3,3.23-.39a1.45,1.45,0,0,1,1.6,1.14c.52,1.49,1.1,3,1.64,4.43.93,2.53,1.84,5.07,2.77,7.6.13.36.32.7.48,1.06a3.55,3.55,0,0,1,.35.82,13.86,13.86,0,0,1-1.53,6.64c-1.38-3.63-2.66-7.16-4-10.65S70.65,72.56,69.09,68.84Z"/><path class="cls-1" d="M41.44,10.09c1.07-.25,2-.45,3-.71.8-.22,1,.11,1,.85,0,3.05-.08,6.11,0,9.16s.18,5.85.25,8.77c0,1.29-.08,1.35-1.4,1.18a1.56,1.56,0,0,0-.71,0,6.38,6.38,0,0,0-1,.6c.34.29.64.73,1,.83a7.5,7.5,0,0,0,1.8,0l.12,2.69-2.81.15A1.37,1.37,0,0,0,44,34.92c1.53.26,1.41.27,1.51,1.79a74.64,74.64,0,0,1-.32,10.62c-.07.86-.13,1.72-.14,2.58s-.8.71-1.31.78a.79.79,0,0,1-1-.78c-.05-1.43-.07-2.87-.11-4.3-.11-3.55-.24-7.1-.34-10.65-.11-3.88-.19-7.76-.29-11.64-.08-3.1-.17-6.2-.29-9.3C41.71,12.72,41.55,11.42,41.44,10.09Z"/><path class="cls-1" d="M46.65,9.84c.94.39,1.77.75,2.62,1.07,2.21.81,2.73,2.9,3.6,4.72a11.6,11.6,0,0,1,1,5.4c0,1.39.25,2.82-.44,4.16-.85,1.66-1.62,3.31-3.93,3.27-.55,0-1.1.5-1.68.69-1,.32-1,.25-1-.74-.09-2.77-.29-5.54-.34-8.31,0-2.31.09-4.63.13-6.94C46.66,12.15,46.65,11.14,46.65,9.84Z"/><path class="cls-1" d="M46.57,6.47a17.17,17.17,0,0,1,5.68,2.24c1,.63,2,1.29,3,2a1,1,0,0,1,.32.31,15.78,15.78,0,0,1,1.19,2.21A35.57,35.57,0,0,1,58.53,23a9.22,9.22,0,0,1-2,6.51A7.83,7.83,0,0,1,52.42,32c-1.55.45-3.12.8-4.68,1.23-.57.16-.88,0-.94-.56a3.49,3.49,0,0,1,0-1.58c.15-.32.8-.43,1.25-.58,1.16-.38,2.37-.64,3.49-1.12A3.58,3.58,0,0,0,53.94,27a.83.83,0,0,1,.16-.32c1.37-1.75,1.26-3.79,1.27-5.85a15.72,15.72,0,0,0-1.78-7.09A8.54,8.54,0,0,0,52,11.13a15.41,15.41,0,0,0-3.2-2,14.12,14.12,0,0,0-1.94-.68C46.36,8.26,46.26,7.72,46.57,6.47Z"/><path class="cls-1" d="M41.23,8.44c.17-.39.27-1.06.53-1.13a17.46,17.46,0,0,1,3.18-.49c.12,0,.29.59.44.92l-3.84,1Z"/><path class="cls-1" d="M19.89,118.14a5.66,5.66,0,0,1,0-.79c.5-3.15-.12-6.28-.11-9.43,0-4.15-.09-8.31-.17-12.46,0-1.78-.14-3.57-.18-5.35,0-2-.12-4,0-6,.1-2.58.36-5.15.53-7.73,0-.53-.08-1.07,0-1.6a.74.74,0,0,1,.53-.49c1,0,2,.14,2.93.15.55,0,.65.23.78.72.54,2.07,0,4.11-.12,6.15s-.22,4.27-.28,6.4c0,1.55.09,3.11-.05,4.64a66.28,66.28,0,0,0,0,7.31c0,2.41-.21,4.83-.32,7.24-.09,1.91-.15,3.82-.23,5.72,0,.15.08.34,0,.44-.91,1.31-.35,2.91-.89,4.28a1,1,0,0,1-.55.56A14.44,14.44,0,0,1,19.89,118.14Z"/><path class="cls-1" d="M32.71,72.56c-2.22.07-4.45.13-6.67.24-.55,0-.69-.11-.64-.63.07-.73.1-1.46.1-2.19,0-.53.17-.78.73-.73,1.54.15,3.08.27,4.62.41.76.07,1.53.2,2.29.2,1,0,1.31.2,1.35,1.17,0,1.22-.12,1.4-1.25,1.43h-.54Z"/><path class="cls-1" d="M10.87,69.66c1,.11,1.95.23,2.86.3a8.45,8.45,0,0,0,1.41,0c1.06-.1,2.12-.22,3.22-.34v3.28c-.64-.07-1.19-.14-1.74-.19-1.51-.14-3-.3-4.53-.38-.74,0-1.1-.24-1.05-1A10.12,10.12,0,0,0,10.87,69.66Z"/><path class="cls-1" d="M22.18,72.92a3.37,3.37,0,0,1-.55,0C21,72.8,20,72.73,20,72.53a13.6,13.6,0,0,1,.1-3c0-.1.39-.24.6-.24.94,0,1.89.09,2.83.11.56,0,.8.21.74.82a10.62,10.62,0,0,0,0,1.94c.07.74-.33.86-.92.82Z"/><path class="cls-1" d="M72,14.27a12.79,12.79,0,0,1,1.91,5.19,3.4,3.4,0,0,1-.34,1.65c-.52,1.51-1.13,3-1.63,4.52-1,3-1.88,6.08-3,9.07-.69,1.9-1.68,3.68-2.5,5.53q-1.76,4-3.45,7.93a3.64,3.64,0,0,0-.2,1.05c-.07.64-.42.81-1,.67-.29-.07-.58-.14-.88-.19-1-.17-1.26-.65-.94-1.62.75-2.26,1.51-4.53,2.23-6.8a77.28,77.28,0,0,1,4-10.5,74,74,0,0,0,3.08-7.71c.92-2.59,1.66-5.23,2.47-7.85A9,9,0,0,0,72,14.27Z"/><path class="cls-1" d="M76.75,14.44c.37,1.46.67,2.78,1.06,4.09s.85,2.35,1.19,3.55.55,2.68.94,4c1.11,3.71,2.29,7.39,3.44,11.09.82,2.63,1.64,5.26,2.44,7.89.15.48.21,1,.32,1.47s-.29.63-.69.67c-.61.06-1.23.06-1.83.16s-.78-.19-.9-.64q-1-3.48-1.93-7C80,37,79.28,34.27,78.55,31.53c-.18-.69-.24-1.42-.45-2.1-.49-1.59-1.11-3.14-1.54-4.75-.34-1.26-.48-2.58-.7-3.88,0-.09,0-.19,0-.27-1.12-2,.46-3.79.63-5.69C76.47,14.73,76.62,14.62,76.75,14.44Z"/><path class="cls-1" d="M74.38,7.52c2.15,2.88,2,5.77.42,8.9-.31-.58-.61-1.09-.87-1.62a14.58,14.58,0,0,1-1.07-2.45A3.22,3.22,0,0,1,73,10.56C73.37,9.55,73.88,8.6,74.38,7.52Z"/><path class="cls-1" d="M92,28.86c.16-1.68.22-3.85.6-6,.49-2.71,1.18-5.4,1.89-8.07a24.33,24.33,0,0,1,1.56-4.37,11.69,11.69,0,0,1,7.45-6.25,9.2,9.2,0,0,1,4.83.19,14.61,14.61,0,0,1,2.89.74,6.05,6.05,0,0,1,1.68,1.66c.1.11,0,.52-.15.69a6.65,6.65,0,0,1-1,1c-1,.83-1,.8-2-.09A6.11,6.11,0,0,0,104.1,7a12.17,12.17,0,0,0-1.48.31A6.27,6.27,0,0,0,99.9,9.71a19.49,19.49,0,0,0-1.34,2.54,15.25,15.25,0,0,0-2.05,4.82q-.31,1.79-.54,3.6c-.15,1.17-.31,2.35-.37,3.53-.11,2.43-.29,4.87-.17,7.29.11,2.19.61,4.36.93,6.53A5.3,5.3,0,0,0,98,40.68c.2.22.41.43.59.66A25.07,25.07,0,0,0,101.27,45a5.92,5.92,0,0,0,3,1.36,18.07,18.07,0,0,0,4.5,0,3.42,3.42,0,0,0,2.64-1.65c.62-1,1-1,1.62,0a2.09,2.09,0,0,0,.49.49,1.41,1.41,0,0,1-.11,2.53A13.37,13.37,0,0,1,106,50a15.66,15.66,0,0,1-6.26-1.4,8.74,8.74,0,0,1-4.65-4.79A23,23,0,0,0,94,41.41a13.16,13.16,0,0,1-1.53-6C92.31,33.37,92.18,31.34,92,28.86Z"/><path d="M45.26,158l1.91-.49c1.16-.32,1.36-.73,1.2-1.91a10.32,10.32,0,0,1,0-2.47c.1-.93.38-1.84.53-2.76a9,9,0,0,1,2.18-4.42,5.74,5.74,0,0,1,1.39-1.3c1.51-.87,2.3-.75,3.57.45a9.08,9.08,0,0,1,1.35,1.57,1.62,1.62,0,0,1,.21,1.14,6.2,6.2,0,0,1-1.17,3.13c-.45.48-.64,1.19-1.05,1.72-.73.93-1.53,1.8-2.3,2.7-.11.13-.28.31-.26.45a6.43,6.43,0,0,0,1.79,4.13,10.83,10.83,0,0,0,1.32,1.23,1.45,1.45,0,0,0,1.11.19,14.85,14.85,0,0,0,2.47-1.08,16,16,0,0,0,1.55-1.17c.46-.33.35-.65.11-1.07-.51-.88-1-1.8-1.45-2.69a7.07,7.07,0,0,0-.4-.63.64.64,0,0,1,.11-1c.32-.23.62-.3.9.12.59.85,1.59,1.06,2.44,1.49.38.19,1,.53,1.18.41A6.49,6.49,0,0,0,65,154c.35-.69.61-1.42.93-2.13.56-1.26,1.14-2.52,1.7-3.78a14.12,14.12,0,0,1,.56-1.31,4.56,4.56,0,0,0,.53-2.7c0-.21.22-.44.41-.79,2.88,3.57,4.83,7.36,5.18,11.91,1.58-1,3.22-1.7,4.18-3.36A18.36,18.36,0,0,1,80.08,150a21.39,21.39,0,0,0,1.41-2,18.74,18.74,0,0,0,2.05-6.19,7.69,7.69,0,0,0,0-1.93c0-.51.17-.65.66-.67s.93-.19,1.4-.24.93,0,1.4-.05a6.44,6.44,0,0,1,0,1.34c-.44,2.18-.91,4.36-1.39,6.53-.14.63-.28,1.27-.47,1.89a10.15,10.15,0,0,0-.08,4,3.17,3.17,0,0,0,.65,1.26.83.83,0,0,0,.58-.21c.71-1.18,1.36-2.4,2.06-3.58.41-.69.88-1.36,1.36-2s1-1.41,1.62-2.07c.81-.91,1.68-1.75,2.51-2.64a9.33,9.33,0,0,1,4.72-2.66,22.05,22.05,0,0,1,4.11-.26c.1,0,.22,0,.31,0,1-.29,1.7.3,2.41.81a.59.59,0,0,1,.1.57.68.68,0,0,1-.54.24,1.33,1.33,0,0,1-.56-.28,5,5,0,0,0-4.22.13,7.06,7.06,0,0,0-2.57,3.57,9.28,9.28,0,0,0-.3,4.1,12.64,12.64,0,0,0,.57,3.12c.53,1.15.9,2.47,2.4,3.05.77.3,1.06,0,1.59-.23a9.15,9.15,0,0,0,2.57-1.64,3.11,3.11,0,0,0,1.1-2.11c.33-2.18.67-4.36.92-6.55.14-1.2.06-2.43.14-3.64s.25-2.41.37-3.62a1.27,1.27,0,0,0-.05-.62c-.24-.54-.06-.84.47-1l2.1-.65c.43-.13.65,0,.68.47.08,1.13.21,2.25.22,3.38,0,1.34,0,2.69-.14,4-.08,1.17-.25,2.34-.39,3.51-.11.92-.25,1.83-.35,2.74-.15,1.36-.25,2.72-.44,4.07-.16,1.14-.49,2.26-.62,3.4a19.13,19.13,0,0,1-1.33,4.44,27.34,27.34,0,0,1-5.28,8.52,37,37,0,0,1-4.15,3.93,11.37,11.37,0,0,1-1.88,1.14,35.58,35.58,0,0,1-3.57,1.85,15.31,15.31,0,0,1-3.16.79c-1.45.25-2.91.4-4.37.57a6.43,6.43,0,0,1-1.19,0,32.72,32.72,0,0,1-4.19-.37,11.47,11.47,0,0,1-4.12-1.77c-1.85-1.25-2.6-3.08-3.34-5a5.85,5.85,0,0,1,.13-4.83,4.68,4.68,0,0,1,1.46-2,3.62,3.62,0,0,1,2.76-.51.71.71,0,0,1,.41.28,4,4,0,0,1,.26.71,2.14,2.14,0,0,1-.68.14A3.33,3.33,0,0,0,72.8,167a4.21,4.21,0,0,0-.34,2.82,8.36,8.36,0,0,0,1.86,4.49,7.44,7.44,0,0,0,2.39,1.79,11.48,11.48,0,0,0,3.45,1.09,15,15,0,0,0,4.69,0,36.73,36.73,0,0,0,5.23-1.81,5.54,5.54,0,0,0,2.24-1.33,11.61,11.61,0,0,1,2-1.26,16.18,16.18,0,0,0,4.78-4.51c1-1.49,1.8-3.08,2.66-4.64.62-1.14,1.23-2.29,1.77-3.47a10.5,10.5,0,0,0,.48-1.82q.37-1.49.73-3c0-.05,0-.12,0-.24-.48.3-1,.57-1.4.87a9.25,9.25,0,0,1-4.81,1.57,6.25,6.25,0,0,1-3.59-1.18c-1.69-1.09-2.24-2.79-2.62-4.56a30.44,30.44,0,0,1-.36-3.5c0-.36-.05-.73-.08-1.09l-.18-.06a5.2,5.2,0,0,0-.79.74c-.57.82-1.14,1.65-1.64,2.52-1.22,2.13-2.43,4.27-3.59,6.43a2,2,0,0,1-1.73,1.18A1.93,1.93,0,0,1,82,156.92,19.24,19.24,0,0,1,80.74,154a9.29,9.29,0,0,1-.09-2.29c0-.14,0-.29,0-.67a7,7,0,0,0-.9.68c-.6.65-1.18,1.31-1.73,2a7.76,7.76,0,0,1-3,2.08,2.81,2.81,0,0,0-1.67,2.69,2.83,2.83,0,0,1-.76,1.8,6.47,6.47,0,0,1-3,2,5.08,5.08,0,0,1-2.05.06,9.05,9.05,0,0,1-4.16-1.76,6.89,6.89,0,0,1-.61-.53c-.71-.69-.67-.64-1.48,0a9.71,9.71,0,0,1-2.53,1.61c-1.55.54-3.2.84-4.8,1.22a.69.69,0,0,1-.43,0c-.65-.31-1.28-.65-1.93-1a5.82,5.82,0,0,1-1.22-.61,5.35,5.35,0,0,1-2-3.3,18.08,18.08,0,0,1-1.95.84,5.22,5.22,0,0,1-1.44.11c-.8,0-1.6,0-2.39,0a3.89,3.89,0,0,1-2.22-.93c-.29-.22-.49-.26-.72.07-.7,1-1.4,2-2.13,3a8.87,8.87,0,0,1-1.17,1.32c-.95.85-1.9,1.7-2.92,2.48-2.26,1.72-4.73,1.57-7.31.85A5.77,5.77,0,0,1,23,163.4a10.16,10.16,0,0,1-1.62-3.08c-.68-2.32-.79-4.53.92-6.57a36.11,36.11,0,0,1,2.8-2.92,9.46,9.46,0,0,1,3.15-2.08,4.22,4.22,0,0,1,1.4-.26,7.92,7.92,0,0,1,4.1.64A7.14,7.14,0,0,1,37,152.83c.18.45.39.88.54,1.34s.11.8-.4.79a18.67,18.67,0,0,0-1.49-2.89c-1-1.29-2.11-2.46-3.94-2.4a1.15,1.15,0,0,1-.31-.06,2.6,2.6,0,0,0-2.45.86c-1.4,1.22-1.67,3-2.28,4.59a5.11,5.11,0,0,0-.17,2.83c.08.4-.08.85,0,1.25a22.39,22.39,0,0,0,.8,2.69c.92,2.44,2.35,2.39,4.55,2.41,1.8,0,2.63-1.33,3.75-2.28a10.91,10.91,0,0,0,1.58-1.77c.62-.83,1.1-1.78,1.78-2.56s.23-1.12-.12-1.72a17.43,17.43,0,0,1-1.18-2.48,13.91,13.91,0,0,1-.59-5.91,24.14,24.14,0,0,1,1.34-7,14.07,14.07,0,0,1,1.31-2.68,2.12,2.12,0,0,1,3.62,0,10.06,10.06,0,0,1,1.71,4.92,16.3,16.3,0,0,1-.23,5.36,22.4,22.4,0,0,1-.88,2.49c-.39,1-.83,2-1.23,3a.73.73,0,0,0,0,.54c.6,1.16,1,2.46,2.17,3.24a.72.72,0,0,1,.19.23A2.56,2.56,0,0,1,45.26,158Zm44.46,18.69c1.29.17,2.31-.51,3.37-1,.81-.37,1.54-.92,2.34-1.32a18,18,0,0,0,4.68-3.84,19.9,19.9,0,0,0,1.59-1.85,46.62,46.62,0,0,0,2.76-3.79c.67-1.1,1.08-2.36,1.68-3.5a21,21,0,0,0,1.47-5.06,13.26,13.26,0,0,0,.28-1.36c.21-1.6.4-3.21.6-4.81.3-2.46.62-4.92.9-7.38.06-.54,0-1.09,0-1.63,0-1.24.06-2.48.07-3.71,0-.15-.12-.42-.17-.42a3.81,3.81,0,0,0-1.23.15c-.16.06-.25.44-.27.69,0,.65,0,1.31,0,2-.12,2.12-.25,4.24-.41,6.35-.08,1.09-.18,2.18-.36,3.25-.33,1.91-.7,3.82-1.1,5.72-.28,1.31-.66,2.6-.94,3.91a17.6,17.6,0,0,1-2.07,4.84,17.6,17.6,0,0,0-1.2,2A13.46,13.46,0,0,1,99,170a32.79,32.79,0,0,1-4.4,3.75,42.88,42.88,0,0,1-3.66,2.34A10.07,10.07,0,0,1,89.72,176.65Zm9-20.27a28.38,28.38,0,0,1-1.62-2.62c-1.1-2.3-1-4.8-.8-7.23a9.87,9.87,0,0,1,1.35-3.28,10.66,10.66,0,0,1,1.18-1.56,9.75,9.75,0,0,0-5.47,3.53,3.55,3.55,0,0,0-.62,1.8,18.28,18.28,0,0,0,.69,5.35c.66,2.73,2.46,3.68,4.75,4.08A1.81,1.81,0,0,0,98.73,156.38Zm-70.54-6.31-.12-.21a9.66,9.66,0,0,0-1.52.89,32,32,0,0,0-2.72,2.57A6.11,6.11,0,0,0,22,157.19a7.4,7.4,0,0,0,1.11,4.56c.73,1.14,1.35,2.5,3,2.77.79.13,1.56.36,2.34.54l.08-.16a2.73,2.73,0,0,0-.33-.3,3.13,3.13,0,0,1-1.55-2.19,1.47,1.47,0,0,0-.12-.36,10.94,10.94,0,0,1-.59-7.3A9.38,9.38,0,0,1,28.19,150.06Zm12.9-12.16c-.16.13-.25.18-.32.25a6.62,6.62,0,0,0-1.62,3.22c-.41,1.39-.64,2.85-.94,4.27a5.47,5.47,0,0,0-.22,1.23,48.1,48.1,0,0,0,.25,5,6.75,6.75,0,0,0,1.51,3.62c.31.36.58.35.81,0,.5-.72,1.11-1.4.67-2.42a7.51,7.51,0,0,1-.47-1.82c-.17-1.1-.32-2.2-.38-3.3a23.8,23.8,0,0,1,.06-3c.1-1.27.29-2.54.41-3.81C41,140.1,41,139,41.09,137.91Zm44.83,2c-.53.17-1.18-.13-1.33.54-.39,1.65-.69,3.32-1.05,5a7.33,7.33,0,0,1-.61,2,9.88,9.88,0,0,0-1.16,2.9,7.22,7.22,0,0,0,.91,5.79c.38.56,1.29,1.09,1.62.77a7.72,7.72,0,0,0,1.11-1.69s-.12-.2-.2-.29c-1.47-1.55-1.48-3.47-1.25-5.39.14-1.16.5-2.29.74-3.44s.47-2.3.7-3.46C85.58,141.81,85.74,140.93,85.93,139.95ZM42.23,138a3.43,3.43,0,0,0-.2.6c-.19,1.26-.42,2.52-.51,3.79-.12,1.71-.15,3.43-.19,5.15a17.73,17.73,0,0,0,.77,4.69,3.56,3.56,0,0,0,.13.35c.19-.23.28-.29.32-.38.49-1.36,1.06-2.69,1.43-4.08a13.35,13.35,0,0,0,.42-3.27,11.71,11.71,0,0,0-.85-5C43.24,139.21,43.3,138.27,42.23,138Zm22.72,18.2a9.44,9.44,0,0,0,1.41.27c1,0,1.93,0,2.89,0,.34,0,.63-.12.6-.56a8.27,8.27,0,0,1-.08-.93c0-1.14.19-2.28.12-3.4a19.85,19.85,0,0,0-.58-2.87c-.08-.38-.18-.76-.31-1.31Zm-12.2-1.94a15.6,15.6,0,0,0,1.46-1.69c.89-1.4,2.06-2.62,2.35-4.38a1.86,1.86,0,0,0-.32-1.67c-.3-.35-.65-.66-1-1s-.62-.41-1,.12a12.87,12.87,0,0,0-1.51,4.37A8.24,8.24,0,0,0,52.74,154.29Zm-3.44,2.06c1.1,0,1.53-.91,2.28-1.3.06,0,0-.23,0-.35a11.83,11.83,0,0,1,.24-5,14.12,14.12,0,0,1,1.41-3.88.36.36,0,0,0,0-.33.41.41,0,0,0-.34,0,1.2,1.2,0,0,0-.38.2,8,8,0,0,0-2.4,3.5,22.09,22.09,0,0,0-.67,2.48A12.43,12.43,0,0,0,49.31,156.36Zm20.08,1.16h-.54a9.49,9.49,0,0,1-4.21-.32.71.71,0,0,0-.56.18,3.89,3.89,0,0,0-.68.73,1,1,0,0,0,.18,1.5,7.4,7.4,0,0,0,3.3,1.58c.48.11.92,0,1.09-.56.06-.21.3-.35.4-.56.38-.77.74-1.56,1.09-2.34C69.47,157.69,69.42,157.62,69.38,157.51Zm.67-11.18-.2,0c.2.86.42,1.72.59,2.58A26.06,26.06,0,0,1,71,152.1c.09,1.21,0,2.44,0,3.66a.5.5,0,0,0,.32.34,1.53,1.53,0,0,0,2-1.52,5.1,5.1,0,0,0-.21-1.11c-.13-.55-.24-1.1-.41-1.63a17,17,0,0,0-.84-2.35C71.3,148.42,70.65,147.39,70.06,146.34ZM54.83,161.75a2.66,2.66,0,0,0-.13-.35.7.7,0,0,0-.17-.19,6.74,6.74,0,0,1-2.6-4.56c-.07-.48-.29-.5-.64-.24s-1,.66-1.48,1a.81.81,0,0,0-.22.68A3.68,3.68,0,0,0,51.92,161a4.14,4.14,0,0,1,1.42.55C53.84,162,54.26,161.74,54.83,161.75Zm13.93-.3c2.42-.35,3.72-1.82,4-4.51-.48.08-.94.18-1.4.22s-.75.44-.93.9a6.41,6.41,0,0,1-1.24,2.48A3.28,3.28,0,0,0,68.76,161.45Zm-25.24-3.67L42,155l-1.26,1.76A3.2,3.2,0,0,0,43.51,157.79Zm17.62-2.24-.18.19c.35.61.67,1.22,1.05,1.8.08.12.47.2.53.14a8.16,8.16,0,0,0,.71-1s0-.08-.07-.1Z"/><path d="M110.34,155.12c.06-.29.13-.58.18-.88.1-.64.23-1.28.26-1.92.1-1.66.11-3.32.24-5,.18-2.17.42-4.34.68-6.5.29-2.31.64-4.62,1-6.93a1.72,1.72,0,0,1,1.09-1.08,6,6,0,0,0,1.42-.45c.76-.38,1.32-.12,1.33.72,0,.5-.08,1-.11,1.51,0,.28,0,.55,0,.83l.2.07a4.05,4.05,0,0,1,.44-.37c1.46-.92,2.79-2.09,4.56-2.43a4.31,4.31,0,0,1,3.93.9,6.45,6.45,0,0,1,1.61,3.48,10.81,10.81,0,0,1-.29,5.27c-.34,1.25-.83,2.46-1.1,3.73a17.07,17.07,0,0,0-.56,6.55,4.64,4.64,0,0,0,.74,1.9c.15.21.9,0,1.36-.07.18,0,.3-.29.48-.39s.47-.15.53-.07a.8.8,0,0,1,.17.63,2,2,0,0,1-1.39,1.47c-1.06.29-2.06.94-3.22.49a3,3,0,0,1-1.24-.65,4.76,4.76,0,0,1-1.39-3.28,9.69,9.69,0,0,0-.27-1.84,1.25,1.25,0,0,1,0-.5c.45-1.62,1-3.22,1.36-4.85.55-2.26,1.12-4.52,1.48-6.81a21.42,21.42,0,0,0-.22-3.24c0-1.56-1.38-2-2.57-1.56a13.89,13.89,0,0,0-4.37,2.81,2.93,2.93,0,0,0-.76,2.14c-.05,2-.12,3.9-.18,5.86s-.11,3.81-.14,5.71c0,.6.07,1.19.09,1.79s-.74,1.17-1.4,1.27a4,4,0,0,0-1.28.44c-.83.45-1.62,1-2.43,1.45Zm4.81-21.7c-.75,0-1.51.38-1.58.81-.16,1-.3,2.07-.44,3.11-.21,1.56-.44,3.11-.63,4.67-.12,1-.18,2-.25,2.95s-.12,2.08-.21,3.12c-.05.62-.22,1.23-.23,1.85,0,1,0,2,0,3.07,0,.41.14.51.49.32.59-.32,1.19-.63,1.75-1a.84.84,0,0,0,.24-.59c.08-1.32.13-2.64.19-4,.09-1.82.17-3.64.26-5.46s.16-3.43.31-5.15c.09-1,.32-2,.45-3C115.59,133.87,115.75,133.43,115.15,133.42Zm9.06.85c.1.57.18,1.11.27,1.64a7.24,7.24,0,0,1,.18,3.58c-.57,1.9-.87,3.87-1.31,5.81-.34,1.49-.77,3-1.08,4.47a6.47,6.47,0,0,0,.85,5.08,1.6,1.6,0,0,0,1.84.66,11.78,11.78,0,0,1-.78-2.47,15.32,15.32,0,0,1,.44-6.18c.48-1.5.76-3.06,1.21-4.57a9.68,9.68,0,0,0,.2-5.51C125.75,135.76,125.45,134.69,124.21,134.27Z"/><path d="M82.47,131.09c-.1-.11-.15-.2-.22-.23-1-.44-1-1.41-1-2.25a2.31,2.31,0,0,1,1.34-1.87c.95-.55,2.68.35,2.94,1.51a3.14,3.14,0,0,1-.52,2.69.9.9,0,0,0-.06.68c.15.57.38,1.11.55,1.67a2,2,0,0,1-.76,2.07c-.49.51-1.12.26-1.67.09s-1.33-.26-1.67-1a2.94,2.94,0,0,1,.18-2.28ZM82.2,129a1.65,1.65,0,0,0,1.55,1.51c.39,0,1.06-.94,1.06-1.49a1.32,1.32,0,0,0-1.18-1.24C82.74,127.74,82.21,128.19,82.2,129Zm1.43,3.21a1.47,1.47,0,0,0-1.42,1.55c0,.39.8.82,1.51.83a1.05,1.05,0,0,0,.93-.91C84.61,132.58,84.31,132.15,83.63,132.17Z"/><path d="M89.72,176.65a10.07,10.07,0,0,0,1.22-.55,42.88,42.88,0,0,0,3.66-2.34A32.79,32.79,0,0,0,99,170a13.46,13.46,0,0,0,2.62-4.21,17.6,17.6,0,0,1,1.2-2,17.6,17.6,0,0,0,2.07-4.84c.28-1.31.66-2.6.94-3.91.4-1.9.78-3.81,1.1-5.72.18-1.07.28-2.16.36-3.25.16-2.12.29-4.23.41-6.35,0-.65,0-1.31,0-2,0-.24.11-.63.27-.69a3.81,3.81,0,0,1,1.23-.15c.06,0,.17.27.17.42,0,1.24-.06,2.48-.07,3.71,0,.54.1,1.1,0,1.63-.28,2.46-.6,4.92-.9,7.38-.2,1.6-.39,3.21-.6,4.81a13.26,13.26,0,0,1-.28,1.36,21,21,0,0,1-1.47,5.06c-.6,1.15-1,2.41-1.68,3.5a46.62,46.62,0,0,1-2.76,3.79,19.9,19.9,0,0,1-1.59,1.85,18,18,0,0,1-4.68,3.84c-.8.4-1.53.95-2.34,1.32C92,176.13,91,176.82,89.72,176.65Z"/><path d="M98.73,156.38a1.81,1.81,0,0,1-.53.08c-2.29-.4-4.09-1.35-4.75-4.08a18.28,18.28,0,0,1-.69-5.35,3.55,3.55,0,0,1,.62-1.8,9.75,9.75,0,0,1,5.47-3.53,10.66,10.66,0,0,0-1.18,1.56,9.87,9.87,0,0,0-1.35,3.28c-.21,2.43-.3,4.93.8,7.23A28.38,28.38,0,0,0,98.73,156.38Z"/><path d="M28.19,150.06a9.38,9.38,0,0,0-2.33,4.68,10.94,10.94,0,0,0,.59,7.3,1.47,1.47,0,0,1,.12.36,3.13,3.13,0,0,0,1.55,2.19,2.73,2.73,0,0,1,.33.3l-.08.16c-.78-.18-1.55-.41-2.34-.54-1.61-.27-2.22-1.63-3-2.77A7.4,7.4,0,0,1,22,157.19a6.11,6.11,0,0,1,1.85-3.87,32,32,0,0,1,2.72-2.57,9.66,9.66,0,0,1,1.52-.89Z"/><path d="M41.09,137.91c-.08,1.14-.14,2.19-.23,3.23-.12,1.27-.31,2.54-.41,3.81a23.8,23.8,0,0,0-.06,3c.06,1.11.22,2.21.38,3.3a7.51,7.51,0,0,0,.47,1.82c.44,1-.17,1.7-.67,2.42-.23.33-.5.34-.81,0a6.75,6.75,0,0,1-1.51-3.62,48.1,48.1,0,0,1-.25-5,5.47,5.47,0,0,1,.22-1.23c.3-1.43.52-2.88.94-4.27a6.62,6.62,0,0,1,1.62-3.22C40.85,138.09,40.93,138,41.09,137.91Z"/><path d="M85.93,139.95c-.19,1-.35,1.86-.52,2.73-.23,1.15-.46,2.31-.7,3.46s-.6,2.28-.74,3.44c-.23,1.92-.23,3.84,1.25,5.39.08.09.23.25.2.29A7.72,7.72,0,0,1,84.3,157c-.33.32-1.24-.21-1.62-.77a7.22,7.22,0,0,1-.91-5.79,9.88,9.88,0,0,1,1.16-2.9,7.33,7.33,0,0,0,.61-2c.37-1.65.67-3.32,1.05-5C84.75,139.82,85.4,140.12,85.93,139.95Z"/><path class="cls-1" d="M42.23,138c1.08.24,1,1.17,1.32,1.84a11.71,11.71,0,0,1,.85,5,13.35,13.35,0,0,1-.42,3.27c-.37,1.39-.94,2.73-1.43,4.08,0,.09-.12.15-.32.38a3.56,3.56,0,0,1-.13-.35,17.73,17.73,0,0,1-.77-4.69c0-1.72.06-3.44.19-5.15.09-1.27.33-2.53.51-3.79A3.43,3.43,0,0,1,42.23,138Z"/><path class="cls-1" d="M64.94,156.23l4-8.79c.13.55.23.93.31,1.31a19.85,19.85,0,0,1,.58,2.87c.07,1.13-.08,2.27-.12,3.4a8.27,8.27,0,0,0,.08.93c0,.43-.26.55-.6.56-1,0-1.93,0-2.89,0A9.44,9.44,0,0,1,64.94,156.23Z"/><path class="cls-1" d="M52.74,154.29a8.24,8.24,0,0,1,0-4.23,12.87,12.87,0,0,1,1.51-4.37c.35-.53.53-.56,1-.12s.68.63,1,1a1.86,1.86,0,0,1,.32,1.67c-.29,1.75-1.47,3-2.35,4.38A15.6,15.6,0,0,1,52.74,154.29Z"/><path d="M49.31,156.36a12.43,12.43,0,0,1,.17-4.75,22.09,22.09,0,0,1,.67-2.48,8,8,0,0,1,2.4-3.5,1.2,1.2,0,0,1,.38-.2.41.41,0,0,1,.34,0,.36.36,0,0,1,0,.33,14.12,14.12,0,0,0-1.41,3.88,11.83,11.83,0,0,0-.24,5c0,.12,0,.32,0,.35C50.83,155.45,50.4,156.37,49.31,156.36Z"/><path class="cls-1" d="M69.38,157.51c0,.11.09.18.07.22-.36.78-.71,1.57-1.09,2.34-.1.2-.34.35-.4.56-.17.6-.61.67-1.09.56a7.4,7.4,0,0,1-3.3-1.58,1,1,0,0,1-.18-1.5,3.89,3.89,0,0,1,.68-.73.71.71,0,0,1,.56-.18,9.49,9.49,0,0,0,4.21.32Z"/><path d="M70.06,146.34c.6,1.05,1.24,2.08,1.77,3.16a17,17,0,0,1,.84,2.35c.17.53.28,1.09.41,1.63a5.1,5.1,0,0,1,.21,1.11,1.53,1.53,0,0,1-2,1.52.5.5,0,0,1-.32-.34c0-1.22.07-2.45,0-3.66a26.06,26.06,0,0,0-.54-3.14c-.17-.87-.39-1.72-.59-2.58Z"/><path d="M54.83,161.75c-.57,0-1,.27-1.49-.18a4.14,4.14,0,0,0-1.42-.55,3.68,3.68,0,0,1-2.33-2.88.81.81,0,0,1,.22-.68c.46-.39,1-.69,1.48-1s.57-.24.64.24a6.74,6.74,0,0,0,2.6,4.56.7.7,0,0,1,.17.19A2.66,2.66,0,0,1,54.83,161.75Z"/><path d="M68.76,161.45a3.28,3.28,0,0,1,.45-.91,6.41,6.41,0,0,0,1.24-2.48c.19-.46.34-.86.93-.9s.91-.14,1.4-.22C72.48,159.64,71.17,161.11,68.76,161.45Z"/><path d="M43.51,157.79a3.2,3.2,0,0,1-2.78-1L42,155Z"/><path class="cls-1" d="M61.13,155.54l2,1s.08.08.07.1a8.16,8.16,0,0,1-.71,1c-.06.07-.45,0-.53-.14-.38-.58-.71-1.2-1.05-1.8Z"/><path d="M115.15,133.42c.6,0,.43.45.39.77-.14,1-.37,2-.45,3-.15,1.71-.22,3.43-.31,5.15s-.18,3.64-.26,5.46c-.06,1.32-.11,2.64-.19,4a.84.84,0,0,1-.24.59c-.56.37-1.16.68-1.75,1-.35.19-.49.08-.49-.32,0-1-.06-2,0-3.07,0-.62.18-1.23.23-1.85.09-1,.14-2.08.21-3.12s.13-2,.25-2.95c.19-1.56.42-3.11.63-4.67.14-1,.28-2.07.44-3.11C113.64,133.8,114.4,133.43,115.15,133.42Z"/><path d="M124.21,134.27c1.24.42,1.54,1.49,1.82,2.52a9.68,9.68,0,0,1-.2,5.51c-.45,1.51-.73,3.07-1.21,4.57a15.32,15.32,0,0,0-.44,6.18,11.78,11.78,0,0,0,.78,2.47,1.6,1.6,0,0,1-1.84-.66,6.47,6.47,0,0,1-.85-5.08c.31-1.5.74-3,1.08-4.47.44-1.94.74-3.91,1.31-5.81a7.24,7.24,0,0,0-.18-3.58C124.39,135.38,124.31,134.85,124.21,134.27Z"/><path d="M82.2,129c0-.76.54-1.22,1.43-1.22A1.32,1.32,0,0,1,84.8,129c0,.55-.66,1.49-1.06,1.49A1.65,1.65,0,0,1,82.2,129Z"/><path d="M83.63,132.17c.68,0,1,.42,1,1.47a1.05,1.05,0,0,1-.93.91c-.72,0-1.5-.44-1.51-.83A1.47,1.47,0,0,1,83.63,132.17Z"/><g class="cls-2"><rect class="cls-3" x="268.89" y="-15.91" width="164" height="139.33"/></g><path d="M315.26,158l1.91-.49c1.16-.32,1.36-.73,1.2-1.91a10.32,10.32,0,0,1,0-2.47c.1-.93.38-1.84.53-2.76a9,9,0,0,1,2.18-4.42,5.74,5.74,0,0,1,1.39-1.3c1.51-.87,2.3-.75,3.57.45a9.08,9.08,0,0,1,1.35,1.57,1.62,1.62,0,0,1,.21,1.14,6.2,6.2,0,0,1-1.17,3.13c-.45.48-.64,1.19-1.05,1.72-.73.93-1.53,1.8-2.3,2.7-.11.13-.28.31-.26.45a6.43,6.43,0,0,0,1.79,4.13,10.83,10.83,0,0,0,1.32,1.23,1.45,1.45,0,0,0,1.11.19,14.85,14.85,0,0,0,2.47-1.08,16,16,0,0,0,1.55-1.17c.46-.33.35-.65.11-1.07-.51-.88-1-1.8-1.45-2.69a7.07,7.07,0,0,0-.4-.63.64.64,0,0,1,.11-1c.32-.23.62-.3.9.12.59.85,1.59,1.06,2.44,1.49.38.19,1,.53,1.18.41A6.49,6.49,0,0,0,335,154c.35-.69.61-1.42.93-2.13.56-1.26,1.14-2.52,1.7-3.78a14.12,14.12,0,0,1,.56-1.31,4.56,4.56,0,0,0,.53-2.7c0-.21.22-.44.41-.79,2.88,3.57,4.83,7.36,5.18,11.91,1.58-1,3.22-1.7,4.18-3.36a18.36,18.36,0,0,1,1.57-1.83,21.39,21.39,0,0,0,1.41-2,18.74,18.74,0,0,0,2.05-6.19,7.69,7.69,0,0,0,0-1.93c0-.51.17-.65.66-.67s.93-.19,1.4-.24.93,0,1.4-.05a6.44,6.44,0,0,1,0,1.34c-.44,2.18-.91,4.36-1.39,6.53-.14.63-.28,1.27-.47,1.89a10.15,10.15,0,0,0-.08,4,3.17,3.17,0,0,0,.65,1.26.83.83,0,0,0,.58-.21c.71-1.18,1.36-2.4,2.06-3.58.41-.69.88-1.36,1.36-2s1-1.41,1.62-2.07c.81-.91,1.68-1.75,2.51-2.64a9.33,9.33,0,0,1,4.72-2.66,22.05,22.05,0,0,1,4.11-.26c.1,0,.22,0,.31,0,1-.29,1.7.3,2.41.81a.59.59,0,0,1,.1.57.68.68,0,0,1-.54.24,1.33,1.33,0,0,1-.56-.28,5,5,0,0,0-4.22.13,7.06,7.06,0,0,0-2.57,3.57,9.28,9.28,0,0,0-.3,4.1,12.64,12.64,0,0,0,.57,3.12c.53,1.15.9,2.47,2.4,3.05.77.3,1.06,0,1.59-.23a9.15,9.15,0,0,0,2.57-1.64,3.11,3.11,0,0,0,1.1-2.11c.33-2.18.67-4.36.92-6.55.14-1.2.06-2.43.14-3.64s.25-2.41.37-3.62a1.27,1.27,0,0,0-.05-.62c-.24-.54-.06-.84.47-1l2.1-.65c.43-.13.65,0,.68.47.08,1.13.21,2.25.22,3.38,0,1.34,0,2.69-.14,4-.08,1.17-.25,2.34-.39,3.51-.11.92-.25,1.83-.35,2.74-.15,1.36-.25,2.72-.44,4.07-.16,1.14-.49,2.26-.62,3.4a19.13,19.13,0,0,1-1.33,4.44,27.34,27.34,0,0,1-5.28,8.52,37,37,0,0,1-4.15,3.93,11.37,11.37,0,0,1-1.88,1.14,35.58,35.58,0,0,1-3.57,1.85,15.31,15.31,0,0,1-3.16.79c-1.45.25-2.91.4-4.37.57a6.43,6.43,0,0,1-1.19,0,32.72,32.72,0,0,1-4.19-.37,11.47,11.47,0,0,1-4.12-1.77c-1.85-1.25-2.6-3.08-3.34-5a5.85,5.85,0,0,1,.13-4.83,4.68,4.68,0,0,1,1.46-2,3.62,3.62,0,0,1,2.76-.51.71.71,0,0,1,.41.28,4,4,0,0,1,.26.71,2.14,2.14,0,0,1-.68.14A3.33,3.33,0,0,0,342.8,167a4.21,4.21,0,0,0-.34,2.82,8.36,8.36,0,0,0,1.86,4.49,7.44,7.44,0,0,0,2.39,1.79,11.48,11.48,0,0,0,3.45,1.09,15,15,0,0,0,4.69,0,36.73,36.73,0,0,0,5.23-1.81,5.54,5.54,0,0,0,2.24-1.33,11.61,11.61,0,0,1,2-1.26,16.18,16.18,0,0,0,4.78-4.51c1-1.49,1.8-3.08,2.66-4.64.62-1.14,1.23-2.29,1.77-3.47a10.5,10.5,0,0,0,.48-1.82q.37-1.49.73-3c0-.05,0-.12,0-.24-.48.3-1,.57-1.4.87a9.25,9.25,0,0,1-4.81,1.57,6.25,6.25,0,0,1-3.59-1.18c-1.69-1.09-2.24-2.79-2.62-4.56a30.44,30.44,0,0,1-.36-3.5c0-.36-.05-.73-.08-1.09l-.18-.06a5.2,5.2,0,0,0-.79.74c-.57.82-1.14,1.65-1.64,2.52-1.22,2.13-2.43,4.27-3.59,6.43a2,2,0,0,1-1.73,1.18,1.93,1.93,0,0,1-1.88-1.13,19.24,19.24,0,0,1-1.25-2.93,9.29,9.29,0,0,1-.09-2.29c0-.14,0-.29,0-.67a7,7,0,0,0-.9.68c-.6.65-1.18,1.31-1.73,2a7.76,7.76,0,0,1-3,2.08,2.81,2.81,0,0,0-1.67,2.69,2.83,2.83,0,0,1-.76,1.8,6.47,6.47,0,0,1-3,2,5.08,5.08,0,0,1-2.05.06,9.05,9.05,0,0,1-4.16-1.76,6.89,6.89,0,0,1-.61-.53c-.71-.69-.67-.64-1.48,0a9.71,9.71,0,0,1-2.53,1.61c-1.55.54-3.2.84-4.8,1.22a.69.69,0,0,1-.43,0c-.65-.31-1.28-.65-1.93-1a5.82,5.82,0,0,1-1.22-.61,5.35,5.35,0,0,1-2-3.3,18.08,18.08,0,0,1-1.95.84,5.22,5.22,0,0,1-1.44.11c-.8,0-1.6,0-2.39,0a3.89,3.89,0,0,1-2.22-.93c-.29-.22-.49-.26-.72.07-.7,1-1.4,2-2.13,3a8.87,8.87,0,0,1-1.17,1.32c-.95.85-1.9,1.7-2.92,2.48-2.26,1.72-4.73,1.57-7.31.85a5.77,5.77,0,0,1-3.26-2.3,10.16,10.16,0,0,1-1.62-3.08c-.68-2.32-.79-4.53.92-6.57a36.11,36.11,0,0,1,2.8-2.92,9.46,9.46,0,0,1,3.15-2.08,4.22,4.22,0,0,1,1.4-.26,7.92,7.92,0,0,1,4.1.64,7.14,7.14,0,0,1,3.33,3.72c.18.45.39.88.54,1.34s.11.8-.4.79a18.67,18.67,0,0,0-1.49-2.89c-1-1.29-2.11-2.46-3.94-2.4a1.15,1.15,0,0,1-.31-.06,2.6,2.6,0,0,0-2.45.86c-1.4,1.22-1.67,3-2.28,4.59a5.11,5.11,0,0,0-.17,2.83c.08.4-.08.85,0,1.25a22.39,22.39,0,0,0,.8,2.69c.92,2.44,2.35,2.39,4.55,2.41,1.8,0,2.63-1.33,3.75-2.28a10.91,10.91,0,0,0,1.58-1.77c.62-.83,1.1-1.78,1.78-2.56s.23-1.12-.12-1.72a17.43,17.43,0,0,1-1.18-2.48,13.91,13.91,0,0,1-.59-5.91,24.14,24.14,0,0,1,1.34-7,14.07,14.07,0,0,1,1.31-2.68,2.12,2.12,0,0,1,3.62,0,10.06,10.06,0,0,1,1.71,4.92,16.3,16.3,0,0,1-.23,5.36,22.4,22.4,0,0,1-.88,2.49c-.39,1-.83,2-1.23,3a.73.73,0,0,0,0,.54c.6,1.16,1,2.46,2.17,3.24a.72.72,0,0,1,.19.23A2.56,2.56,0,0,1,315.26,158Zm44.46,18.69c1.29.17,2.31-.51,3.37-1,.81-.37,1.54-.92,2.34-1.32a18,18,0,0,0,4.68-3.84,19.9,19.9,0,0,0,1.59-1.85,46.62,46.62,0,0,0,2.76-3.79c.67-1.1,1.08-2.36,1.68-3.5a21,21,0,0,0,1.47-5.06,13.26,13.26,0,0,0,.28-1.36c.21-1.6.4-3.21.6-4.81.3-2.46.62-4.92.9-7.38.06-.54,0-1.09,0-1.63,0-1.24.06-2.48.07-3.71,0-.15-.12-.42-.17-.42a3.81,3.81,0,0,0-1.23.15c-.16.06-.25.44-.27.69,0,.65,0,1.31,0,2-.12,2.12-.25,4.24-.41,6.35-.08,1.09-.18,2.18-.36,3.25-.33,1.91-.7,3.82-1.1,5.72-.28,1.31-.66,2.6-.94,3.91a17.6,17.6,0,0,1-2.07,4.84,17.6,17.6,0,0,0-1.2,2A13.46,13.46,0,0,1,369,170a32.79,32.79,0,0,1-4.4,3.75,42.88,42.88,0,0,1-3.66,2.34A10.07,10.07,0,0,1,359.72,176.65Zm9-20.27a28.38,28.38,0,0,1-1.62-2.62c-1.1-2.3-1-4.8-.8-7.23a9.87,9.87,0,0,1,1.35-3.28,10.66,10.66,0,0,1,1.18-1.56,9.75,9.75,0,0,0-5.47,3.53,3.55,3.55,0,0,0-.62,1.8,18.28,18.28,0,0,0,.69,5.35c.66,2.73,2.46,3.68,4.75,4.08A1.81,1.81,0,0,0,368.73,156.38Zm-70.54-6.31-.12-.21a9.66,9.66,0,0,0-1.52.89,32,32,0,0,0-2.72,2.57,6.11,6.11,0,0,0-1.85,3.87,7.4,7.4,0,0,0,1.11,4.56c.73,1.14,1.35,2.5,3,2.77.79.13,1.56.36,2.34.54l.08-.16a2.73,2.73,0,0,0-.33-.3,3.13,3.13,0,0,1-1.55-2.19,1.47,1.47,0,0,0-.12-.36,10.94,10.94,0,0,1-.59-7.3A9.38,9.38,0,0,1,298.19,150.06Zm12.9-12.16c-.16.13-.25.18-.32.25a6.62,6.62,0,0,0-1.62,3.22c-.41,1.39-.64,2.85-.94,4.27a5.47,5.47,0,0,0-.22,1.23,48.1,48.1,0,0,0,.25,5,6.75,6.75,0,0,0,1.51,3.62c.31.36.58.35.81,0,.5-.72,1.11-1.4.67-2.42a7.51,7.51,0,0,1-.47-1.82c-.17-1.1-.32-2.2-.38-3.3a23.8,23.8,0,0,1,.06-3c.1-1.27.29-2.54.41-3.81C311,140.1,311,139,311.09,137.91Zm44.83,2c-.53.17-1.18-.13-1.33.54-.39,1.65-.69,3.32-1.05,5a7.33,7.33,0,0,1-.61,2,9.88,9.88,0,0,0-1.16,2.9,7.22,7.22,0,0,0,.91,5.79c.38.56,1.29,1.09,1.62.77a7.72,7.72,0,0,0,1.11-1.69s-.12-.2-.2-.29c-1.47-1.55-1.48-3.47-1.25-5.39.14-1.16.5-2.29.74-3.44s.47-2.3.7-3.46C355.58,141.81,355.74,140.93,355.93,139.95ZM312.23,138a3.43,3.43,0,0,0-.2.6c-.19,1.26-.42,2.52-.51,3.79-.12,1.71-.15,3.43-.19,5.15a17.73,17.73,0,0,0,.77,4.69,3.56,3.56,0,0,0,.13.35c.19-.23.28-.29.32-.38.49-1.36,1.06-2.69,1.43-4.08a13.35,13.35,0,0,0,.42-3.27,11.71,11.71,0,0,0-.85-5C313.24,139.21,313.3,138.27,312.23,138Zm22.72,18.2a9.44,9.44,0,0,0,1.41.27c1,0,1.93,0,2.89,0,.34,0,.63-.12.6-.56a8.27,8.27,0,0,1-.08-.93c0-1.14.19-2.28.12-3.4a19.85,19.85,0,0,0-.58-2.87c-.08-.38-.18-.76-.31-1.31Zm-12.2-1.94a15.6,15.6,0,0,0,1.46-1.69c.89-1.4,2.06-2.62,2.35-4.38a1.86,1.86,0,0,0-.32-1.67c-.3-.35-.65-.66-1-1s-.62-.41-1,.12a12.87,12.87,0,0,0-1.51,4.37A8.24,8.24,0,0,0,322.74,154.29Zm-3.44,2.06c1.1,0,1.53-.91,2.28-1.3.06,0,0-.23,0-.35a11.83,11.83,0,0,1,.24-5,14.12,14.12,0,0,1,1.41-3.88.36.36,0,0,0,0-.33.41.41,0,0,0-.34,0,1.2,1.2,0,0,0-.38.2,8,8,0,0,0-2.4,3.5,22.09,22.09,0,0,0-.67,2.48A12.43,12.43,0,0,0,319.31,156.36Zm20.08,1.16h-.54a9.49,9.49,0,0,1-4.21-.32.71.71,0,0,0-.56.18,3.89,3.89,0,0,0-.68.73,1,1,0,0,0,.18,1.5,7.4,7.4,0,0,0,3.3,1.58c.48.11.92,0,1.09-.56.06-.21.3-.35.4-.56.38-.77.74-1.56,1.09-2.34C339.47,157.69,339.42,157.62,339.38,157.51Zm.67-11.18-.2,0c.2.86.42,1.72.59,2.58a26.06,26.06,0,0,1,.54,3.14c.09,1.21,0,2.44,0,3.66a.5.5,0,0,0,.32.34,1.53,1.53,0,0,0,2-1.52,5.1,5.1,0,0,0-.21-1.11c-.13-.55-.24-1.1-.41-1.63a17,17,0,0,0-.84-2.35C341.3,148.42,340.65,147.39,340.06,146.34Zm-15.23,15.41a2.66,2.66,0,0,0-.13-.35.7.7,0,0,0-.17-.19,6.74,6.74,0,0,1-2.6-4.56c-.07-.48-.29-.5-.64-.24s-1,.66-1.48,1a.81.81,0,0,0-.22.68,3.68,3.68,0,0,0,2.33,2.88,4.14,4.14,0,0,1,1.42.55C323.84,162,324.26,161.74,324.83,161.75Zm13.93-.3c2.42-.35,3.72-1.82,4-4.51-.48.08-.94.18-1.4.22s-.75.44-.93.9a6.41,6.41,0,0,1-1.24,2.48A3.28,3.28,0,0,0,338.76,161.45Zm-25.24-3.67L312,155l-1.26,1.76A3.2,3.2,0,0,0,313.51,157.79Zm17.62-2.24-.18.19c.35.61.67,1.22,1.05,1.8.08.12.47.2.53.14a8.16,8.16,0,0,0,.71-1s0-.08-.07-.1Z"/><path d="M380.34,155.12c.06-.29.13-.58.18-.88.1-.64.23-1.28.26-1.92.1-1.66.11-3.32.24-5,.18-2.17.42-4.34.68-6.5.29-2.31.64-4.62,1-6.93a1.72,1.72,0,0,1,1.09-1.08,6,6,0,0,0,1.42-.45c.76-.38,1.32-.12,1.33.72,0,.5-.08,1-.11,1.51,0,.28,0,.55,0,.83l.2.07a4.05,4.05,0,0,1,.44-.37c1.46-.92,2.79-2.09,4.56-2.43a4.31,4.31,0,0,1,3.93.9,6.45,6.45,0,0,1,1.61,3.48,10.81,10.81,0,0,1-.29,5.27c-.34,1.25-.83,2.46-1.1,3.73a17.07,17.07,0,0,0-.56,6.55,4.64,4.64,0,0,0,.74,1.9c.15.21.9,0,1.36-.07.18,0,.3-.29.48-.39s.47-.15.53-.07a.8.8,0,0,1,.17.63,2,2,0,0,1-1.39,1.47c-1.06.29-2.06.94-3.22.49a3,3,0,0,1-1.24-.65,4.76,4.76,0,0,1-1.39-3.28,9.69,9.69,0,0,0-.27-1.84,1.25,1.25,0,0,1,0-.5c.45-1.62,1-3.22,1.36-4.85.55-2.26,1.12-4.52,1.48-6.81a21.42,21.42,0,0,0-.22-3.24c0-1.56-1.38-2-2.57-1.56a13.89,13.89,0,0,0-4.37,2.81,2.93,2.93,0,0,0-.76,2.14c-.05,2-.12,3.9-.18,5.86s-.11,3.81-.14,5.71c0,.6.07,1.19.09,1.79s-.74,1.17-1.4,1.27a4,4,0,0,0-1.28.44c-.83.45-1.62,1-2.43,1.45Zm4.81-21.7c-.75,0-1.51.38-1.58.81-.16,1-.3,2.07-.44,3.11-.21,1.56-.44,3.11-.63,4.67-.12,1-.18,2-.25,2.95s-.12,2.08-.21,3.12c-.05.62-.22,1.23-.23,1.85,0,1,0,2,0,3.07,0,.41.14.51.49.32.59-.32,1.19-.63,1.75-1a.84.84,0,0,0,.24-.59c.08-1.32.13-2.64.19-4,.09-1.82.17-3.64.26-5.46s.16-3.43.31-5.15c.09-1,.32-2,.45-3C385.59,133.87,385.75,133.43,385.15,133.42Zm9.06.85c.1.57.18,1.11.27,1.64a7.24,7.24,0,0,1,.18,3.58c-.57,1.9-.87,3.87-1.31,5.81-.34,1.49-.77,3-1.08,4.47a6.47,6.47,0,0,0,.85,5.08,1.6,1.6,0,0,0,1.84.66,11.78,11.78,0,0,1-.78-2.47,15.32,15.32,0,0,1,.44-6.18c.48-1.5.76-3.06,1.21-4.57a9.68,9.68,0,0,0,.2-5.51C395.75,135.76,395.45,134.69,394.21,134.27Z"/><path d="M352.47,131.09c-.1-.11-.15-.2-.22-.23-1-.44-1-1.41-1-2.25a2.31,2.31,0,0,1,1.34-1.87c.95-.55,2.68.35,2.94,1.51a3.14,3.14,0,0,1-.52,2.69.9.9,0,0,0-.06.68c.15.57.38,1.11.55,1.67a2,2,0,0,1-.76,2.07c-.49.51-1.12.26-1.67.09s-1.33-.26-1.67-1a2.94,2.94,0,0,1,.18-2.28ZM352.2,129a1.65,1.65,0,0,0,1.55,1.51c.39,0,1.06-.94,1.06-1.49a1.32,1.32,0,0,0-1.18-1.24C352.74,127.74,352.21,128.19,352.2,129Zm1.43,3.21a1.47,1.47,0,0,0-1.42,1.55c0,.39.8.82,1.51.83a1.05,1.05,0,0,0,.93-.91C354.61,132.58,354.31,132.15,353.63,132.17Z"/><path d="M359.72,176.65a10.07,10.07,0,0,0,1.22-.55,42.88,42.88,0,0,0,3.66-2.34A32.79,32.79,0,0,0,369,170a13.46,13.46,0,0,0,2.62-4.21,17.6,17.6,0,0,1,1.2-2,17.6,17.6,0,0,0,2.07-4.84c.28-1.31.66-2.6.94-3.91.4-1.9.78-3.81,1.1-5.72.18-1.07.28-2.16.36-3.25.16-2.12.29-4.23.41-6.35,0-.65,0-1.31,0-2,0-.24.11-.63.27-.69a3.81,3.81,0,0,1,1.23-.15c.06,0,.17.27.17.42,0,1.24-.06,2.48-.07,3.71,0,.54.1,1.1,0,1.63-.28,2.46-.6,4.92-.9,7.38-.2,1.6-.39,3.21-.6,4.81a13.26,13.26,0,0,1-.28,1.36,21,21,0,0,1-1.47,5.06c-.6,1.15-1,2.41-1.68,3.5a46.62,46.62,0,0,1-2.76,3.79,19.9,19.9,0,0,1-1.59,1.85,18,18,0,0,1-4.68,3.84c-.8.4-1.53.95-2.34,1.32C362,176.13,361,176.82,359.72,176.65Z"/><path d="M368.73,156.38a1.81,1.81,0,0,1-.53.08c-2.29-.4-4.09-1.35-4.75-4.08a18.28,18.28,0,0,1-.69-5.35,3.55,3.55,0,0,1,.62-1.8,9.75,9.75,0,0,1,5.47-3.53,10.66,10.66,0,0,0-1.18,1.56,9.87,9.87,0,0,0-1.35,3.28c-.21,2.43-.3,4.93.8,7.23A28.38,28.38,0,0,0,368.73,156.38Z"/><path d="M298.19,150.06a9.38,9.38,0,0,0-2.33,4.68,10.94,10.94,0,0,0,.59,7.3,1.47,1.47,0,0,1,.12.36,3.13,3.13,0,0,0,1.55,2.19,2.73,2.73,0,0,1,.33.3l-.08.16c-.78-.18-1.55-.41-2.34-.54-1.61-.27-2.22-1.63-3-2.77a7.4,7.4,0,0,1-1.11-4.56,6.11,6.11,0,0,1,1.85-3.87,32,32,0,0,1,2.72-2.57,9.66,9.66,0,0,1,1.52-.89Z"/><path d="M311.09,137.91c-.08,1.14-.14,2.19-.23,3.23-.12,1.27-.31,2.54-.41,3.81a23.8,23.8,0,0,0-.06,3c.06,1.11.22,2.21.38,3.3a7.51,7.51,0,0,0,.47,1.82c.44,1-.17,1.7-.67,2.42-.23.33-.5.34-.81,0a6.75,6.75,0,0,1-1.51-3.62,48.1,48.1,0,0,1-.25-5,5.47,5.47,0,0,1,.22-1.23c.3-1.43.52-2.88.94-4.27a6.62,6.62,0,0,1,1.62-3.22C310.85,138.09,310.93,138,311.09,137.91Z"/><path d="M355.93,139.95c-.19,1-.35,1.86-.52,2.73-.23,1.15-.46,2.31-.7,3.46s-.6,2.28-.74,3.44c-.23,1.92-.23,3.84,1.25,5.39.08.09.23.25.2.29A7.72,7.72,0,0,1,354.3,157c-.33.32-1.24-.21-1.62-.77a7.22,7.22,0,0,1-.91-5.79,9.88,9.88,0,0,1,1.16-2.9,7.33,7.33,0,0,0,.61-2c.37-1.65.67-3.32,1.05-5C354.75,139.82,355.4,140.12,355.93,139.95Z"/><path class="cls-1" d="M312.23,138c1.08.24,1,1.17,1.32,1.84a11.71,11.71,0,0,1,.85,5,13.35,13.35,0,0,1-.42,3.27c-.37,1.39-.94,2.73-1.43,4.08,0,.09-.12.15-.32.38a3.56,3.56,0,0,1-.13-.35,17.73,17.73,0,0,1-.77-4.69c0-1.72.06-3.44.19-5.15.09-1.27.33-2.53.51-3.79A3.43,3.43,0,0,1,312.23,138Z"/><path class="cls-1" d="M334.94,156.23l4-8.79c.13.55.23.93.31,1.31a19.85,19.85,0,0,1,.58,2.87c.07,1.13-.08,2.27-.12,3.4a8.27,8.27,0,0,0,.08.93c0,.43-.26.55-.6.56-1,0-1.93,0-2.89,0A9.44,9.44,0,0,1,334.94,156.23Z"/><path class="cls-1" d="M322.74,154.29a8.24,8.24,0,0,1,0-4.23,12.87,12.87,0,0,1,1.51-4.37c.35-.53.53-.56,1-.12s.68.63,1,1a1.86,1.86,0,0,1,.32,1.67c-.29,1.75-1.47,3-2.35,4.38A15.6,15.6,0,0,1,322.74,154.29Z"/><path d="M319.31,156.36a12.43,12.43,0,0,1,.17-4.75,22.09,22.09,0,0,1,.67-2.48,8,8,0,0,1,2.4-3.5,1.2,1.2,0,0,1,.38-.2.41.41,0,0,1,.34,0,.36.36,0,0,1,0,.33,14.12,14.12,0,0,0-1.41,3.88,11.83,11.83,0,0,0-.24,5c0,.12,0,.32,0,.35C320.83,155.45,320.4,156.37,319.31,156.36Z"/><path class="cls-1" d="M339.38,157.51c0,.11.09.18.07.22-.36.78-.71,1.57-1.09,2.34-.1.2-.34.35-.4.56-.17.6-.61.67-1.09.56a7.4,7.4,0,0,1-3.3-1.58,1,1,0,0,1-.18-1.5,3.89,3.89,0,0,1,.68-.73.71.71,0,0,1,.56-.18,9.49,9.49,0,0,0,4.21.32Z"/><path d="M340.06,146.34c.6,1.05,1.24,2.08,1.77,3.16a17,17,0,0,1,.84,2.35c.17.53.28,1.09.41,1.63a5.1,5.1,0,0,1,.21,1.11,1.53,1.53,0,0,1-2,1.52.5.5,0,0,1-.32-.34c0-1.22.07-2.45,0-3.66a26.06,26.06,0,0,0-.54-3.14c-.17-.87-.39-1.72-.59-2.58Z"/><path d="M324.83,161.75c-.57,0-1,.27-1.49-.18a4.14,4.14,0,0,0-1.42-.55,3.68,3.68,0,0,1-2.33-2.88.81.81,0,0,1,.22-.68c.46-.39,1-.69,1.48-1s.57-.24.64.24a6.74,6.74,0,0,0,2.6,4.56.7.7,0,0,1,.17.19A2.66,2.66,0,0,1,324.83,161.75Z"/><path d="M338.76,161.45a3.28,3.28,0,0,1,.45-.91,6.41,6.41,0,0,0,1.24-2.48c.19-.46.34-.86.93-.9s.91-.14,1.4-.22C342.48,159.64,341.17,161.11,338.76,161.45Z"/><path d="M313.51,157.79a3.2,3.2,0,0,1-2.78-1L312,155Z"/><path class="cls-1" d="M331.13,155.54l2,1s.08.08.07.1a8.16,8.16,0,0,1-.71,1c-.06.07-.45,0-.53-.14-.38-.58-.71-1.2-1.05-1.8Z"/><path d="M385.15,133.42c.6,0,.43.45.39.77-.14,1-.37,2-.45,3-.15,1.71-.22,3.43-.31,5.15s-.18,3.64-.26,5.46c-.06,1.32-.11,2.64-.19,4a.84.84,0,0,1-.24.59c-.56.37-1.16.68-1.75,1-.35.19-.49.08-.49-.32,0-1-.06-2,0-3.07,0-.62.18-1.23.23-1.85.09-1,.14-2.08.21-3.12s.13-2,.25-2.95c.19-1.56.42-3.11.63-4.67.14-1,.28-2.07.44-3.11C383.64,133.8,384.4,133.43,385.15,133.42Z"/><path d="M394.21,134.27c1.24.42,1.54,1.49,1.82,2.52a9.68,9.68,0,0,1-.2,5.51c-.45,1.51-.73,3.07-1.21,4.57a15.32,15.32,0,0,0-.44,6.18,11.78,11.78,0,0,0,.78,2.47,1.6,1.6,0,0,1-1.84-.66,6.47,6.47,0,0,1-.85-5.08c.31-1.5.74-3,1.08-4.47.44-1.94.74-3.91,1.31-5.81a7.24,7.24,0,0,0-.18-3.58C394.39,135.38,394.31,134.85,394.21,134.27Z"/><path d="M352.2,129c0-.76.54-1.22,1.43-1.22A1.32,1.32,0,0,1,354.8,129c0,.55-.66,1.49-1.06,1.49A1.65,1.65,0,0,1,352.2,129Z"/><path d="M353.63,132.17c.68,0,1,.42,1,1.47a1.05,1.05,0,0,1-.93.91c-.72,0-1.5-.44-1.51-.83A1.47,1.47,0,0,1,353.63,132.17Z"/></svg>