<svg id="Layer_1" data-name="Layer 1" xmlns="http://www.w3.org/2000/svg" viewBox="0 0 98.53 153.33"><defs><style>.cls-1{fill:#fff;}</style></defs><title>thymeleafArtboard 2@1x</title><path d="M41.9,114a5.86,5.86,0,0,1,2.91,1.92A4.62,4.62,0,0,1,46,117.49a19.78,19.78,0,0,1,1.12,5,10.26,10.26,0,0,1-1.13,6,6.65,6.65,0,0,1-3.52,3.16c-1.23.44-1.34.52-1.2,1.81a11.91,11.91,0,0,0,.21,1.17c.75,3.43.47,6.91.41,10.38,0,.17-.22.46-.33.46a.82.82,0,0,1-.55-.31,1,1,0,0,1-.18-.61c.06-1.73.17-3.46.22-5.19a11.35,11.35,0,0,0-.13-1.78c-.17-1.34-.37-2.68-.57-4-.1-.65.06-1.42-.84-1.69-.12,0-.17-.31-.25-.48a1.51,1.51,0,0,1,.44-.17c.52,0,.52-.35.47-.73s-.35-.47-.71-.38a2.07,2.07,0,0,1-.79.16,30.64,30.64,0,0,1-4.93-1c-3-1.06-4.36-3.35-4.41-6.57a13.92,13.92,0,0,1,1-5.31,9.26,9.26,0,0,0,.34-1.06c.1-.37.15-.85.66-.63.25.1.42.53.5.84s0,.85.11,1.23a36.56,36.56,0,0,0,1.56,3.91,18.84,18.84,0,0,0,2.09,3.37,38.54,38.54,0,0,0,3.16,3.3,6.52,6.52,0,0,0,1.17.74,1.86,1.86,0,0,0,.1-.37q-.16-2.7-.33-5.4c-.07-1.21-.14-2.42-.23-3.63,0-.25-.07-.61-.23-.72-.88-.57-.63-1.31-.42-2.08a15.88,15.88,0,0,0,.63-2.66c.14-1.57.17-3.15.19-4.73,0-1.27-.07-2.54-.11-3.78l-.92.15c-1.41.19-2.84.32-4.24.58a14.41,14.41,0,0,0-5.47,2.75,13.39,13.39,0,0,0-1.36,1.33c-.13.12-.4.26-.48.2a1.82,1.82,0,0,1-.61-.66.81.81,0,0,1,.15-.62c.25-.4.6-.73.83-1.14a11.18,11.18,0,0,1,2.67-3.23,28.21,28.21,0,0,0,2.19-2.24c-1.61-1.08-3-2-4.46-3a6.36,6.36,0,0,1-3-5c-.05-.86,0-1.72,0-2.58,0-1.31,0-2.62,0-3.93,0-.28.29-.54.44-.81.26.22.54.42.79.66.06.05,0,.19.06.29A7.37,7.37,0,0,0,29.44,93c.77.44,1.58.8,2.34,1.24s1.65,1.06,2.49,1.58a8.48,8.48,0,0,1,3.4,3.62,22.2,22.2,0,0,0,1.22,2c-.36-3.1-.78-6-1-9-.16-1.91-.08-3.85-.09-5.77,0-1.33,0-2.66,0-4,0-1.16.19-2.32.16-3.47,0-1.48-.2-3-.31-4.43-.05-.68-.11-1.36-.16-2a1,1,0,0,0-.28,0c-.17.05-.32.14-.49.18-1.78.4-3.45,1.53-5.39.91A5.86,5.86,0,0,1,29,73a11.75,11.75,0,0,1-2.09-3,17.24,17.24,0,0,1-1.28-5.07c-.31-1.71-.85-3.38-1.26-5.08a8.88,8.88,0,0,1-.12-1.39l.29-.14a11.39,11.39,0,0,1,.94.8c.76.8,1.43,1.68,2.25,2.42a10.56,10.56,0,0,0,3.92,2,9.06,9.06,0,0,1,3.88,2.1c.59.61,1.25,1.14,1.93,1.75a12.27,12.27,0,0,0,0-1.54A12.22,12.22,0,0,1,37.8,61c.56-2.15,1.22-4.27,1.9-6.38.61-1.89,1.25-3.77,2-5.62a8.23,8.23,0,0,1,2-3.3c.81-.74,1.5-1.61,2.25-2.42l-.15-.19a7.41,7.41,0,0,0-1.22,1c-.45.59-1,.7-1.42.11a9.49,9.49,0,0,1-.71-1.17,17.09,17.09,0,0,1-1.92-3.66,14.06,14.06,0,0,1,.12-9.23c.51-1.35,1-2.82.15-4.3a.68.68,0,0,1,.34-1.05c.48-.15.8,0,1,.56A7.29,7.29,0,0,0,43.3,27.3c.92,1,2,1.91,2.9,3a8.79,8.79,0,0,1,1.56,2.58,18.52,18.52,0,0,1,.57,3.22l.64-.84a4.89,4.89,0,0,1,.7-.9c.88-.71,1.84-1.33,2.7-2.07a5,5,0,0,0,1.14-1.5.74.74,0,0,1,1-.39,1,1,0,0,1,.33.91c-.34,1-.88,1.92-1.21,2.92-.48,1.47-.83,3-1.24,4.47l.19.24,7.88-2.5a10.12,10.12,0,0,1-2.73-4.48,5.12,5.12,0,0,1,0-3.42c.4-1,.81-1.91,1.29-2.82,1.38-2.62,3.13-5.06,3.81-8a.66.66,0,0,1,1.15-.13,2.22,2.22,0,0,1,.35,1.1c-.07,2.26,1,4.07,2.17,5.87a17.58,17.58,0,0,1,1.67,3,8.94,8.94,0,0,1,.42,6,1.71,1.71,0,0,0,.7-.45c.58-.7,1.07-1.48,1.7-2.13a1.3,1.3,0,0,0,.31-1.44,10.62,10.62,0,0,1-.58-3.11,13.26,13.26,0,0,1,2-6.14c1.08-1.8,2.15-3.61,3.26-5.39.15-.24.49-.35.74-.52a2.5,2.5,0,0,1,.36.76,27.32,27.32,0,0,1-.41,8.44c-.05.25-.07.5-.1.72A24.54,24.54,0,0,1,80.5,23a33,33,0,0,1,4.93-.19,7,7,0,0,1,1.94.43.75.75,0,0,1,.44.52c0,.18-.19.43-.36.57a9,9,0,0,0-1.58,1.29,11.91,11.91,0,0,1-2.71,2.72A10.15,10.15,0,0,1,79,30.62a9.67,9.67,0,0,0-1.82.68v.2a9.88,9.88,0,0,0,.95.34,7.4,7.4,0,0,1,3.47,2.3.92.92,0,0,1,0,.85c-.07.14-.51.2-.74.15a15.64,15.64,0,0,0-2-.6,6.37,6.37,0,0,1-3.64-1.6c-.63-.55-1.22-1.25-2.22-1a.43.43,0,0,1-.34-.12c-.49-.52-.74-.14-1,.24-.73,1-1.23,2.12-2.43,2.64-.08,0-.1.2-.18.34a3.73,3.73,0,0,0,.52.19A15.74,15.74,0,0,1,75,37.49a7.2,7.2,0,0,0,5.17,1.35,1.67,1.67,0,0,1,1,.18,1,1,0,0,1,.5.7c0,.16-.35.48-.58.51-.61.09-1.24,0-1.85.11a4.87,4.87,0,0,0-1.57.33,13.09,13.09,0,0,0-1.72,1.16,8.1,8.1,0,0,1-4.12,1.64,5.29,5.29,0,0,1-4.17-1.69A15.07,15.07,0,0,1,64.45,37c-.21-.47-.41-.43-.79-.27a18.69,18.69,0,0,1-1.88.7c-2.46.75-4.94,1.42-7.39,2.22-1.18.39-2.26,1.1-3.45,1.45a4.26,4.26,0,0,0-1.89,1c-.78.77-1.57,1.54-2.37,2.32a11.29,11.29,0,0,1,1.63,1,6.88,6.88,0,0,1,2.22,4.7c.13,1.77.09,3.55,1.08,5.14a.86.86,0,0,1-.15.81,1.17,1.17,0,0,1-1-.06,7.68,7.68,0,0,1-1.63-1.36c-.87-1-2.11-1.09-3.25-1.26a3.37,3.37,0,0,1-2.1-1.05c-.43-.46-.83-.94-1.28-1.46-.39,1.11-.71,2.18-1.12,3.2a3.53,3.53,0,0,0,.22,3.2,27.63,27.63,0,0,1,2.05,4.47,22.18,22.18,0,0,1,.57,3.9.91.91,0,0,0,.3,0,7.13,7.13,0,0,1,4.13-.52.51.51,0,0,0,.29-.06,16.27,16.27,0,0,0,3.23-1.44,20.37,20.37,0,0,0,2.81-2.84c.34-.37.68-.54,1.08-.2s.17.68-.12,1a7,7,0,0,0-1,1.3,2.71,2.71,0,0,0-.31,2.62,10.42,10.42,0,0,1,1,3.47,5.65,5.65,0,0,1-2.05,4.86A9.54,9.54,0,0,1,48,75.14a13.76,13.76,0,0,1-3-.17,15.43,15.43,0,0,1-3-1.19c-1.09-.51-2.15-1.08-3.19-1.61l.29,15.57A24.68,24.68,0,0,0,42.7,80.8c.52.13.91.22,1,.82A18.85,18.85,0,0,0,44,84c.38,2,.81,3.93,1.18,5.9a18.42,18.42,0,0,1,.11,8.4c-.35,1.29-.61,2.61-.92,4a8,8,0,0,1,1.64-.76c1.69-.37,3.4-.65,5.12-.91.18,0,.48.28.59.5a.63.63,0,0,1-.24.56,2.24,2.24,0,0,1-1.05.31,11.19,11.19,0,0,0-5.84,1.47,8.77,8.77,0,0,1-1.91.59c1.29.11,2.76.22,4.22.36a15.17,15.17,0,0,1,5.29,1.6,6.88,6.88,0,0,1,2,1.39,32,32,0,0,1,2.43,3.12.78.78,0,0,1-.06.76.87.87,0,0,1-.77.09c-.24-.1-.41-.39-.61-.61-.42.64-.76.76-1.2.43A24.31,24.31,0,0,0,48,108.37a26.08,26.08,0,0,0-3.42-1c-1.19-.3-2.39-.54-3.71-.83v7.25Zm7.4-47.79a1.86,1.86,0,0,1-1,.1,7.51,7.51,0,0,0-4.12.65c-.51.18-1.19.09-1.4.83,0,.09-.47.17-.59.09-.48-.36-.7,0-1,.27-.42.48-.87.93-1.31,1.39l0,.25a24.75,24.75,0,0,0,3.17-.18,9.38,9.38,0,0,0,4.08-1.47c.39-.29.78-.15.87.27s-.13.82-.32.89c-2.4.82-4.76,1.88-7.41,1.54a2.33,2.33,0,0,0-.83.23c.2.25.34.61.6.73a23.48,23.48,0,0,0,4.56,1.89,18.56,18.56,0,0,0,4.93.14,8.18,8.18,0,0,0,2.68-.77,3.7,3.7,0,0,0,1.83-3.63c-.32-1.64-.66-3.28-1-4.87C51.71,65.17,50.51,65.73,49.3,66.23ZM62.13,22.91c-.87,1.56-1.75,3.12-2.68,4.65a5.79,5.79,0,0,0-.33,4.81,5.56,5.56,0,0,0,2.72,3.28c.39.23,1.09-.06,1.78-.12a7.22,7.22,0,0,0-.32-.91,7.93,7.93,0,0,1-.53-4.5,13.61,13.61,0,0,0,0-2.28c-.09-.95.19-1.22,1-1,0,1.4-.07,2.75,0,4.1a24.94,24.94,0,0,0,.59,3.48c0,.18.46.41.7.4,2.24-.1,2.71-1.55,2.72-3.75,0-2.65-1.35-4.68-2.77-6.74a16.31,16.31,0,0,1-1.28-2.74,10.22,10.22,0,0,1-.32-1l-.19,0C62.87,21.36,62.54,22.16,62.13,22.91ZM43.65,100.31a18.23,18.23,0,0,0,.89-6.8c-.12-1.45-.44-2.89-.69-4.33s-.5-2.81-.77-4.22c0-.26-.15-.52-.28-1l-.52.84c-.77,1.21-1.57,2.4-2.3,3.64a6,6,0,0,0-1,3.84c.15,1.3.13,2.63.33,3.93.24,1.58.62,3.14.94,4.7l.24,0a12.19,12.19,0,0,0,.33-1.81c.07-1.9.06-3.8.1-5.69a1.81,1.81,0,0,1,.13-.8,2.84,2.84,0,0,1,.6-.6c.18.26.52.51.52.78,0,.61-.18,1.22-.22,1.83-.08,1.41-.06,2.82-.19,4.23-.08.93-.36,1.84-.53,2.76-.07.35-.09.71-.15,1.24A4.34,4.34,0,0,0,43.65,100.31ZM28,69a4.88,4.88,0,0,0,7,3.26l.56-.27c-1.14-.85-2.2-1.76-3.37-2.49a7.17,7.17,0,0,1-2.42-2.44c-.21-.34-.09-.88-.12-1.33l.3-.13c.3.31.61.61.9.93a14.22,14.22,0,0,0,1.72,1.86c1.2.9,2.5,1.68,3.77,2.48a7.27,7.27,0,0,0,1.21.48,4.08,4.08,0,0,0-1.31-3.7,12.06,12.06,0,0,0-5.64-3.37,20.6,20.6,0,0,1-3.7-2l-.6-.32C26.88,64.5,27.45,66.77,28,69ZM46.48,32.92a9.34,9.34,0,0,0-1.74-2.43c-.67-.81-1.43-1.55-2.2-2.37-1,3.06-2.06,6-1.36,9.23a16.17,16.17,0,0,0,2.43,5.28c.08.13.26.21.5.39a4.32,4.32,0,0,0,0-.64c-.42-2.38-.88-4.76-1.27-7.15a6.48,6.48,0,0,1,0-1.84c0-.22.31-.56.5-.57s.48.24.65.45a.74.74,0,0,1,.07.58c-.42,1.49.16,2.9.32,4.33.12,1.07.37,2.14.57,3.2,0,.23.12.46.18.69C46.93,39.17,47.7,36.14,46.48,32.92Zm-18.11,66a37.76,37.76,0,0,0,6.35,3.61,1.85,1.85,0,0,0,.42.14,3.13,3.13,0,0,0,.48,0A17.84,17.84,0,0,0,33.84,101c-1.27-.89-2.6-1.69-3.91-2.52a3.24,3.24,0,0,0-.55-.2c-.31-.12-.72-1.2-.5-1.43a.65.65,0,0,1,.62,0c2.17,1.55,4.31,3.13,6.48,4.69.61.44,1.27.81,1.91,1.22l.25-.17c-.32-.69-.6-1.39-1-2.06a9.4,9.4,0,0,0-4.54-4.3c-.86-.4-1.57-1.18-2.45-1.5a7.6,7.6,0,0,1-3.74-3.09s-.13-.06-.19-.08A6.93,6.93,0,0,0,28.37,98.94Zm38.1-60.39a14.53,14.53,0,0,0,2.44,2.93,3.82,3.82,0,0,0,4.37.43,13.83,13.83,0,0,0,3.38-2.08c-.22-.14-.37-.26-.54-.34-1.53-.8-3-1.67-4.61-2.38A26.44,26.44,0,0,0,68.07,36a.66.66,0,0,0-.58.27.65.65,0,0,0,.11.62c1.13.83,2.3,1.6,3.42,2.44a2.08,2.08,0,0,1,.51.91c0,.1-.15.41-.19.4a2.73,2.73,0,0,1-1.12-.35c-1.54-1.26-3-2.58-4.55-3.88l-.15.05A11.8,11.8,0,0,0,66.47,38.54ZM43.59,117.6l.26-.11c.16.23.43.44.46.68a21.43,21.43,0,0,1,.33,3.53,17.57,17.57,0,0,1-1.4,6.1c0,.08-.14.21-.19.2-.68-.12-.85.54-1.28.8-.91.54-.65,1.3-.4,2.16a4.79,4.79,0,0,0,2.72-1.71,8,8,0,0,0,1.9-4.91,27.68,27.68,0,0,0-.67-5.11c-.44-2.07-1.84-3.07-3.47-4a.78.78,0,0,0-1.25.66,10.91,10.91,0,0,0,0,1.77c0,.11.16.25.27.32,2.12,1.25,2.57,3.3,2.69,5.52,0,.16,0,.33.07.49h.24A17.71,17.71,0,0,0,43.59,117.6Zm2.29-65.91c-.27-1.58-1.33-2.67-2-4h-.31a5.44,5.44,0,0,0-.6,2c.07.57.73,1.06,1.11,1.59a2.76,2.76,0,0,0,2,.95,6,6,0,0,1,3.45,1.35c0-2.57.13-5-1.55-7a3.67,3.67,0,0,0-2-1.07c-.34-.07-.91.52-1.21.93-.14.19,0,.71.16,1q.94,1.8,2,3.56c.23.39.29.67-.15,1ZM81.25,24a8.38,8.38,0,0,0-4.7,2,7.64,7.64,0,0,0-1.19,2.32l.2.23c.65-.34,1.3-.67,1.94-1,1.53-.87,3-1.76,4.59-2.6.1-.05.55.26.53.31-.1.31-.2.71-.44.86-1.42.89-2.87,1.73-4.33,2.57-.91.52-1.83,1-2.72,1.57,3.19,0,8.25-2.39,10.35-6.24A34.79,34.79,0,0,0,81.25,24ZM38.75,64.24c.16-.72.29-1.44.49-2.15a1.21,1.21,0,0,1,.51-.62.59.59,0,0,1,.54.21,1.68,1.68,0,0,1,0,.81c-.32,1.63-.65,3.27-1,4.9-.09.39-.31.76-.39,1.22l.64-.62a12.75,12.75,0,0,1,1.65-1.49,2.56,2.56,0,0,0,1.36-2.83,24.49,24.49,0,0,0-1.85-5.44c-.06-.17-.25-.29-.46-.51A13.83,13.83,0,0,0,38.75,64.24Zm11-28c-1,2.07-2.08,4.14-3,6.28A16.5,16.5,0,0,1,48,41.36a28.87,28.87,0,0,0,2.42-1.67,4,4,0,0,0,1.13-1.74c.4-1.31.61-2.68.9-4C51.45,34.6,50.33,35.08,49.77,36.2ZM30.94,119c-.11.61-.24,1.18-.3,1.76a9.72,9.72,0,0,0,.32,4.47,5.16,5.16,0,0,0,2.87,3.08,21.22,21.22,0,0,0,2.42.77l.14-.27c-.24-.18-.47-.36-.72-.52a9.07,9.07,0,0,1-4-4.22c-.12-.31-.41-.55-.56-.86a1,1,0,0,1-.1-.72.68.68,0,0,1,.58-.31.93.93,0,0,1,.55.44c.75,1.28,1.12,2.84,2.5,3.5Zm9.79-14.47.07.8,2.66.54c.09,0,.27,0,.28,0,.34-.86.92-.25,1.27-.13,1.17.42,2.29,1,3.43,1.47s2.52,1,3.78,1.54a14.29,14.29,0,0,0,2.23.8,4,4,0,0,0-.43-.68,8.9,8.9,0,0,0-3.66-2.41,19.42,19.42,0,0,0-6.92-1.36c-.22,0-.44,0-.67.07-.76.09-1-.11-.93-.91Zm-11,2.55a11.53,11.53,0,0,1,4.7-1.85c1.65-.33,3.29-.87,5-.25l-.15-.83a12.45,12.45,0,0,1-6-1.11C32.46,104.85,30.67,105.59,29.73,107.12Zm11.41,21a4.86,4.86,0,0,0,1.36-3.92c-.09-1.74-.26-3.46-1.54-4.78l-.32.09ZM74.6,19.56c.74.14.87.42.68,1.13-.4,1.47-.61,3-.88,4.51-.2,1.12-.35,2.24-.55,3.49,1.36-1,2.67-7.74,2.2-11.42Zm-1.86,9.83,1.34-8.78C72.32,23.34,71,27.28,72.74,29.38Z"/><path class="cls-1" d="M53.1,64.55c-1.39.62-2.58,1.17-3.8,1.68a1.86,1.86,0,0,1-1,.1,7.51,7.51,0,0,0-4.12.65c-.51.18-1.19.09-1.4.83,0,.09-.47.17-.59.09-.48-.36-.7,0-1,.27-.42.48-.87.93-1.31,1.39l0,.25a24.75,24.75,0,0,0,3.17-.18,9.38,9.38,0,0,0,4.08-1.47c.39-.29.78-.15.87.27s-.13.82-.32.89c-2.4.82-4.76,1.88-7.41,1.54a2.33,2.33,0,0,0-.83.23c.2.25.34.61.6.73a23.48,23.48,0,0,0,4.56,1.89,18.56,18.56,0,0,0,4.93.14,8.18,8.18,0,0,0,2.68-.77,3.7,3.7,0,0,0,1.83-3.63C53.77,67.78,53.42,66.15,53.1,64.55Z"/><path class="cls-1" d="M63.24,20.59c-.37.78-.7,1.57-1.11,2.32-.87,1.56-1.75,3.12-2.68,4.65a5.79,5.79,0,0,0-.33,4.81,5.56,5.56,0,0,0,2.72,3.28c.39.23,1.09-.06,1.78-.12a7.22,7.22,0,0,0-.32-.91,7.93,7.93,0,0,1-.53-4.5,13.61,13.61,0,0,0,0-2.28c-.09-.95.19-1.22,1-1,0,1.4-.07,2.75,0,4.1a24.94,24.94,0,0,0,.59,3.48c0,.18.46.41.7.4,2.24-.1,2.71-1.55,2.72-3.75,0-2.65-1.35-4.68-2.77-6.74a16.31,16.31,0,0,1-1.28-2.74,10.22,10.22,0,0,1-.32-1Z"/><path class="cls-1" d="M41.07,102.88a4.34,4.34,0,0,0,2.58-2.58,18.23,18.23,0,0,0,.89-6.8c-.12-1.45-.44-2.89-.69-4.33s-.5-2.81-.77-4.22c0-.26-.15-.52-.28-1l-.52.84c-.77,1.21-1.57,2.4-2.3,3.64a6,6,0,0,0-1,3.84c.15,1.3.13,2.63.33,3.93.24,1.58.62,3.14.94,4.7l.24,0a12.19,12.19,0,0,0,.33-1.81c.07-1.9.06-3.8.1-5.69a1.81,1.81,0,0,1,.13-.8,2.84,2.84,0,0,1,.6-.6c.18.26.52.51.52.78,0,.61-.18,1.22-.22,1.83-.08,1.41-.06,2.82-.19,4.23-.08.93-.36,1.84-.53,2.76C41.15,102,41.13,102.36,41.07,102.88Z"/><path class="cls-1" d="M26.27,62c.61,2.47,1.18,4.74,1.72,7a4.88,4.88,0,0,0,7,3.26l.56-.27c-1.14-.85-2.2-1.76-3.37-2.49a7.17,7.17,0,0,1-2.42-2.44c-.21-.34-.09-.88-.12-1.33l.3-.13c.3.31.61.61.9.93a14.22,14.22,0,0,0,1.72,1.86c1.2.9,2.5,1.68,3.77,2.48a7.27,7.27,0,0,0,1.21.48,4.08,4.08,0,0,0-1.31-3.7,12.06,12.06,0,0,0-5.64-3.37,20.6,20.6,0,0,1-3.7-2Z"/><path class="cls-1" d="M45.14,42.08c1.78-2.91,2.56-5.94,1.34-9.16a9.34,9.34,0,0,0-1.74-2.43c-.67-.81-1.43-1.55-2.2-2.37-1,3.06-2.06,6-1.36,9.23a16.17,16.17,0,0,0,2.43,5.28c.08.13.26.21.5.39a4.32,4.32,0,0,0,0-.64c-.42-2.38-.88-4.76-1.27-7.15a6.48,6.48,0,0,1,0-1.84c0-.22.31-.56.5-.57s.48.24.65.45a.74.74,0,0,1,.07.58c-.42,1.49.16,2.9.32,4.33.12,1.07.37,2.14.57,3.2C45,41.62,45.08,41.85,45.14,42.08Z"/><path class="cls-1" d="M26.25,91.59a6.93,6.93,0,0,0,2.12,7.35,37.76,37.76,0,0,0,6.35,3.61,1.85,1.85,0,0,0,.42.14,3.13,3.13,0,0,0,.48,0A17.84,17.84,0,0,0,33.84,101c-1.27-.89-2.6-1.69-3.91-2.52a3.24,3.24,0,0,0-.55-.2c-.31-.12-.72-1.2-.5-1.43a.65.65,0,0,1,.62,0c2.17,1.55,4.31,3.13,6.48,4.69.61.44,1.27.81,1.91,1.22l.25-.17c-.32-.69-.6-1.39-1-2.06a9.4,9.4,0,0,0-4.54-4.3c-.86-.4-1.57-1.18-2.45-1.5a7.6,7.6,0,0,1-3.74-3.09S26.31,91.61,26.25,91.59Z"/><path class="cls-1" d="M65.52,36.41a11.8,11.8,0,0,0,.95,2.13,14.53,14.53,0,0,0,2.44,2.93,3.82,3.82,0,0,0,4.37.43,13.83,13.83,0,0,0,3.38-2.08c-.22-.14-.37-.26-.54-.34-1.53-.8-3-1.67-4.61-2.38A26.44,26.44,0,0,0,68.07,36a.66.66,0,0,0-.58.27.65.65,0,0,0,.11.62c1.13.83,2.3,1.6,3.42,2.44a2.08,2.08,0,0,1,.51.91c0,.1-.15.41-.19.4a2.73,2.73,0,0,1-1.12-.35c-1.54-1.26-3-2.58-4.55-3.88Z"/><path class="cls-1" d="M43.89,124a17.71,17.71,0,0,0-.3-6.44l.26-.11c.16.23.43.44.46.68a21.43,21.43,0,0,1,.33,3.53,17.57,17.57,0,0,1-1.4,6.1c0,.08-.14.21-.19.2-.68-.12-.85.54-1.28.8-.91.54-.65,1.3-.4,2.16a4.79,4.79,0,0,0,2.72-1.71,8,8,0,0,0,1.9-4.91,27.68,27.68,0,0,0-.67-5.11c-.44-2.07-1.84-3.07-3.47-4a.78.78,0,0,0-1.25.66,10.91,10.91,0,0,0,0,1.77c0,.11.16.25.27.32,2.12,1.25,2.57,3.3,2.69,5.52,0,.16,0,.33.07.49Z"/><path class="cls-1" d="M46.71,52.06l-.83-.37c-.27-1.58-1.33-2.67-2-4h-.31a5.44,5.44,0,0,0-.6,2c.07.57.73,1.06,1.11,1.59a2.76,2.76,0,0,0,2,.95,6,6,0,0,1,3.45,1.35c0-2.57.13-5-1.55-7a3.67,3.67,0,0,0-2-1.07c-.34-.07-.91.52-1.21.93-.14.19,0,.71.16,1q.94,1.8,2,3.56C47.09,51.47,47.15,51.75,46.71,52.06Z"/><path class="cls-1" d="M85.47,24a34.79,34.79,0,0,0-4.22,0,8.38,8.38,0,0,0-4.7,2,7.64,7.64,0,0,0-1.19,2.32l.2.23c.65-.34,1.3-.67,1.94-1,1.53-.87,3-1.76,4.59-2.6.1-.05.55.26.53.31-.1.31-.2.71-.44.86-1.42.89-2.87,1.73-4.33,2.57-.91.52-1.83,1-2.72,1.57C78.32,30.18,83.38,27.82,85.47,24Z"/><path class="cls-1" d="M40.22,57.72a13.83,13.83,0,0,0-1.47,6.52c.16-.72.29-1.44.49-2.15a1.21,1.21,0,0,1,.51-.62.59.59,0,0,1,.54.21,1.68,1.68,0,0,1,0,.81c-.32,1.63-.65,3.27-1,4.9-.09.39-.31.76-.39,1.22l.64-.62a12.75,12.75,0,0,1,1.65-1.49,2.56,2.56,0,0,0,1.36-2.83,24.49,24.49,0,0,0-1.85-5.44C40.61,58.07,40.42,57.95,40.22,57.72Z"/><path class="cls-1" d="M52.45,33.93c-1,.67-2.12,1.15-2.68,2.28-1,2.07-2.08,4.14-3,6.28A16.5,16.5,0,0,1,48,41.36a28.87,28.87,0,0,0,2.42-1.67,4,4,0,0,0,1.13-1.74C51.94,36.64,52.16,35.27,52.45,33.93Z"/><path class="cls-1" d="M34.63,126.15,30.94,119c-.11.61-.24,1.18-.3,1.76a9.72,9.72,0,0,0,.32,4.47,5.16,5.16,0,0,0,2.87,3.08,21.22,21.22,0,0,0,2.42.77l.14-.27c-.24-.18-.47-.36-.72-.52a9.07,9.07,0,0,1-4-4.22c-.12-.31-.41-.55-.56-.86a1,1,0,0,1-.1-.72.68.68,0,0,1,.58-.31.93.93,0,0,1,.55.44C32.88,123.93,33.26,125.49,34.63,126.15Z"/><path class="cls-1" d="M41.85,104.31l-1.11.26.07.8,2.66.54c.09,0,.27,0,.28,0,.34-.86.92-.25,1.27-.13,1.17.42,2.29,1,3.43,1.47s2.52,1,3.78,1.54a14.29,14.29,0,0,0,2.23.8,4,4,0,0,0-.43-.68,8.9,8.9,0,0,0-3.66-2.41,19.42,19.42,0,0,0-6.92-1.36c-.22,0-.44,0-.67.07C42,105.31,41.81,105.12,41.85,104.31Z"/><path class="cls-1" d="M33.29,103.09c-.83,1.77-2.62,2.5-3.56,4a11.53,11.53,0,0,1,4.7-1.85c1.65-.33,3.29-.87,5-.25l-.15-.83A12.45,12.45,0,0,1,33.29,103.09Z"/><path class="cls-1" d="M40.65,119.52l.5,8.6a4.86,4.86,0,0,0,1.36-3.92c-.09-1.74-.26-3.46-1.54-4.78Z"/><path class="cls-1" d="M76,17.27,74.6,19.56c.74.14.87.42.68,1.13-.4,1.47-.61,3-.88,4.51-.2,1.12-.35,2.24-.55,3.49C75.2,27.65,76.52,21,76,17.27Z"/><path class="cls-1" d="M74.07,20.6c-1.76,2.74-3,6.68-1.34,8.78Z"/></svg>